G75*
G70*
%OFA0B0*%
%FSLAX24Y24*%
%IPPOS*%
%LPD*%
%AMOC8*
5,1,8,0,0,1.08239X$1,22.5*
%
%ADD10C,0.1320*%
%ADD11C,0.0540*%
%ADD12R,0.0660X0.0660*%
%ADD13OC8,0.0660*%
%ADD14OC8,0.0540*%
%ADD15OC8,0.0720*%
%ADD16OC8,0.0560*%
%ADD17C,0.0560*%
%ADD18C,0.0660*%
%ADD19C,0.0920*%
D10*
X001400Y011900D03*
X007900Y011900D03*
D11*
X006390Y009150D02*
X005910Y009150D01*
X005910Y008150D02*
X006390Y008150D01*
X006390Y007150D02*
X005910Y007150D01*
X005910Y006150D02*
X006390Y006150D01*
X003390Y006150D02*
X002910Y006150D01*
X002910Y007150D02*
X003390Y007150D01*
X003390Y008150D02*
X002910Y008150D01*
X002910Y009150D02*
X003390Y009150D01*
D12*
X005650Y011900D03*
D13*
X005650Y010900D03*
X004650Y010900D03*
X004650Y011900D03*
X003650Y011900D03*
X003650Y010900D03*
D14*
X002650Y004650D03*
X002650Y003650D03*
X004150Y002650D03*
X007150Y002650D03*
D15*
X007150Y004150D03*
X006150Y004150D03*
D16*
X005050Y004150D03*
X004400Y006150D03*
X004400Y006900D03*
D17*
X004250Y004150D03*
D18*
X002950Y001150D02*
X002350Y001150D01*
X002350Y002150D02*
X002950Y002150D01*
X001950Y006150D02*
X001350Y006150D01*
X001350Y007150D02*
X001950Y007150D01*
X001950Y008150D02*
X001350Y008150D01*
X001350Y009150D02*
X001950Y009150D01*
X007350Y009150D02*
X007950Y009150D01*
X007950Y008150D02*
X007350Y008150D01*
X007350Y007150D02*
X007950Y007150D01*
X007950Y006150D02*
X007350Y006150D01*
D19*
X006989Y001150D03*
X004311Y001150D03*
M02*
