G75*
G70*
%OFA0B0*%
%FSLAX24Y24*%
%IPPOS*%
%LPD*%
%AMOC8*
5,1,8,0,0,1.08239X$1,22.5*
%
%ADD10C,0.0480*%
%ADD11R,0.0600X0.0600*%
%ADD12OC8,0.0600*%
%ADD13OC8,0.0480*%
%ADD14OC8,0.0660*%
%ADD15OC8,0.0500*%
%ADD16C,0.0500*%
%ADD17C,0.0600*%
%ADD18C,0.0860*%
%ADD19C,0.0160*%
%ADD20C,0.0320*%
%ADD21C,0.0100*%
D10*
X002910Y006150D02*
X003390Y006150D01*
X003390Y007150D02*
X002910Y007150D01*
X002910Y008150D02*
X003390Y008150D01*
X003390Y009150D02*
X002910Y009150D01*
X005910Y009150D02*
X006390Y009150D01*
X006390Y008150D02*
X005910Y008150D01*
X005910Y007150D02*
X006390Y007150D01*
X006390Y006150D02*
X005910Y006150D01*
D11*
X005650Y011900D03*
D12*
X005650Y010900D03*
X004650Y010900D03*
X004650Y011900D03*
X003650Y011900D03*
X003650Y010900D03*
D13*
X002650Y004650D03*
X002650Y003650D03*
X004150Y002650D03*
X007150Y002650D03*
D14*
X007150Y004150D03*
X006150Y004150D03*
D15*
X005050Y004150D03*
X004400Y006150D03*
X004400Y006900D03*
D16*
X004250Y004150D03*
D17*
X002950Y002150D02*
X002350Y002150D01*
X002350Y001150D02*
X002950Y001150D01*
X001950Y006150D02*
X001350Y006150D01*
X001350Y007150D02*
X001950Y007150D01*
X001950Y008150D02*
X001350Y008150D01*
X001350Y009150D02*
X001950Y009150D01*
X007350Y009150D02*
X007950Y009150D01*
X007950Y008150D02*
X007350Y008150D01*
X007350Y007150D02*
X007950Y007150D01*
X007950Y006150D02*
X007350Y006150D01*
D18*
X006989Y001150D03*
X004311Y001150D03*
D19*
X006150Y009150D02*
X006150Y010400D01*
X005650Y010900D01*
D20*
X005650Y009150D02*
X006150Y009150D01*
X007650Y009150D01*
X005650Y009150D02*
X004400Y007900D01*
X004400Y006900D01*
X004400Y006150D01*
X005050Y004650D02*
X003400Y004650D01*
X003150Y004650D01*
X003400Y004650D02*
X003400Y002650D01*
D21*
X000584Y000584D02*
X000437Y000787D01*
X000360Y001025D01*
X000350Y001150D01*
X000350Y012150D01*
X000360Y012275D01*
X000437Y012513D01*
X000584Y012716D01*
X000787Y012863D01*
X001025Y012940D01*
X001150Y012950D01*
X008150Y012950D01*
X008275Y012940D01*
X008513Y012863D01*
X008716Y012716D01*
X008863Y012513D01*
X008940Y012275D01*
X008950Y012150D01*
X008950Y001150D01*
X008940Y001025D01*
X008863Y000787D01*
X008716Y000584D01*
X008513Y000437D01*
X008275Y000360D01*
X008150Y000350D01*
X001150Y000350D01*
X001025Y000360D01*
X000787Y000437D01*
X000584Y000584D01*
X000640Y000544D02*
X008660Y000544D01*
X008758Y000643D02*
X007279Y000643D01*
X007317Y000658D02*
X007480Y000821D01*
X007569Y001035D01*
X007569Y001265D01*
X007515Y001394D01*
X007733Y001611D01*
X007850Y001729D01*
X007850Y005700D01*
X008040Y005700D01*
X008205Y005769D01*
X008331Y005895D01*
X008400Y006060D01*
X008950Y006060D01*
X008950Y005962D02*
X008359Y005962D01*
X008400Y006060D02*
X008400Y006240D01*
X008331Y006405D01*
X008205Y006531D01*
X008040Y006600D01*
X007260Y006600D01*
X007095Y006531D01*
X006969Y006405D01*
X006946Y006350D01*
X006729Y006350D01*
X006721Y006371D01*
X006611Y006481D01*
X006468Y006540D01*
X005832Y006540D01*
X005689Y006481D01*
X005579Y006371D01*
X005520Y006228D01*
X005520Y006072D01*
X005579Y005929D01*
X005689Y005819D01*
X005832Y005760D01*
X006468Y005760D01*
X006611Y005819D01*
X006721Y005929D01*
X006729Y005950D01*
X006946Y005950D01*
X006969Y005895D01*
X007095Y005769D01*
X007260Y005700D01*
X007450Y005700D01*
X007450Y004529D01*
X007349Y004630D01*
X006951Y004630D01*
X006670Y004349D01*
X006670Y003951D01*
X006950Y003671D01*
X006950Y003002D01*
X006760Y002812D01*
X006760Y002488D01*
X006988Y002260D01*
X007312Y002260D01*
X007450Y002398D01*
X007450Y001894D01*
X007232Y001677D01*
X007104Y001730D01*
X006873Y001730D01*
X006660Y001642D01*
X006497Y001479D01*
X006409Y001265D01*
X006409Y001035D01*
X006497Y000821D01*
X006660Y000658D01*
X006873Y000570D01*
X007104Y000570D01*
X007317Y000658D01*
X007400Y000741D02*
X008830Y000741D01*
X008880Y000840D02*
X007488Y000840D01*
X007529Y000938D02*
X008912Y000938D01*
X008941Y001037D02*
X007569Y001037D01*
X007569Y001135D02*
X008949Y001135D01*
X008950Y001234D02*
X007569Y001234D01*
X007541Y001332D02*
X008950Y001332D01*
X008950Y001431D02*
X007552Y001431D01*
X007650Y001529D02*
X008950Y001529D01*
X008950Y001628D02*
X007749Y001628D01*
X007847Y001726D02*
X008950Y001726D01*
X008950Y001825D02*
X007850Y001825D01*
X007850Y001923D02*
X008950Y001923D01*
X008950Y002022D02*
X007850Y002022D01*
X007850Y002120D02*
X008950Y002120D01*
X008950Y002219D02*
X007850Y002219D01*
X007850Y002317D02*
X008950Y002317D01*
X008950Y002416D02*
X007850Y002416D01*
X007850Y002514D02*
X008950Y002514D01*
X008950Y002613D02*
X007850Y002613D01*
X007850Y002711D02*
X008950Y002711D01*
X008950Y002810D02*
X007850Y002810D01*
X007850Y002908D02*
X008950Y002908D01*
X008950Y003007D02*
X007850Y003007D01*
X007850Y003105D02*
X008950Y003105D01*
X008950Y003204D02*
X007850Y003204D01*
X007850Y003302D02*
X008950Y003302D01*
X008950Y003401D02*
X007850Y003401D01*
X007850Y003499D02*
X008950Y003499D01*
X008950Y003598D02*
X007850Y003598D01*
X007850Y003696D02*
X008950Y003696D01*
X008950Y003795D02*
X007850Y003795D01*
X007850Y003893D02*
X008950Y003893D01*
X008950Y003992D02*
X007850Y003992D01*
X007850Y004090D02*
X008950Y004090D01*
X008950Y004189D02*
X007850Y004189D01*
X007850Y004287D02*
X008950Y004287D01*
X008950Y004386D02*
X007850Y004386D01*
X007850Y004484D02*
X008950Y004484D01*
X008950Y004583D02*
X007850Y004583D01*
X007850Y004681D02*
X008950Y004681D01*
X008950Y004780D02*
X007850Y004780D01*
X007850Y004878D02*
X008950Y004878D01*
X008950Y004977D02*
X007850Y004977D01*
X007850Y005075D02*
X008950Y005075D01*
X008950Y005174D02*
X007850Y005174D01*
X007850Y005272D02*
X008950Y005272D01*
X008950Y005371D02*
X007850Y005371D01*
X007850Y005469D02*
X008950Y005469D01*
X008950Y005568D02*
X007850Y005568D01*
X007850Y005666D02*
X008950Y005666D01*
X008950Y005765D02*
X008195Y005765D01*
X008299Y005863D02*
X008950Y005863D01*
X008950Y006159D02*
X008400Y006159D01*
X008393Y006257D02*
X008950Y006257D01*
X008950Y006356D02*
X008352Y006356D01*
X008282Y006454D02*
X008950Y006454D01*
X008950Y006553D02*
X008154Y006553D01*
X008040Y006700D02*
X008205Y006769D01*
X008331Y006895D01*
X008400Y007060D01*
X008400Y007240D01*
X008331Y007405D01*
X008205Y007531D01*
X008040Y007600D01*
X007260Y007600D01*
X007095Y007531D01*
X006969Y007405D01*
X006946Y007350D01*
X006729Y007350D01*
X006721Y007371D01*
X006611Y007481D01*
X006468Y007540D01*
X005832Y007540D01*
X005689Y007481D01*
X005579Y007371D01*
X005571Y007350D01*
X005567Y007350D01*
X005450Y007233D01*
X004950Y006733D01*
X004950Y005567D01*
X005067Y005450D01*
X005919Y004598D01*
X005670Y004349D01*
X005670Y003951D01*
X005951Y003670D01*
X006349Y003670D01*
X006630Y003951D01*
X006630Y004349D01*
X006350Y004629D01*
X006350Y004733D01*
X005350Y005733D01*
X005350Y006567D01*
X005646Y006863D01*
X005689Y006819D01*
X005832Y006760D01*
X006468Y006760D01*
X006611Y006819D01*
X006721Y006929D01*
X006729Y006950D01*
X006946Y006950D01*
X006969Y006895D01*
X007095Y006769D01*
X007260Y006700D01*
X008040Y006700D01*
X008159Y006750D02*
X008950Y006750D01*
X008950Y006848D02*
X008284Y006848D01*
X008353Y006947D02*
X008950Y006947D01*
X008950Y007045D02*
X008394Y007045D01*
X008400Y007144D02*
X008950Y007144D01*
X008950Y007242D02*
X008399Y007242D01*
X008358Y007341D02*
X008950Y007341D01*
X008950Y007439D02*
X008297Y007439D01*
X008190Y007538D02*
X008950Y007538D01*
X008950Y007636D02*
X004710Y007636D01*
X004710Y007538D02*
X005826Y007538D01*
X005647Y007439D02*
X004710Y007439D01*
X004710Y007341D02*
X005558Y007341D01*
X005459Y007242D02*
X004710Y007242D01*
X004710Y007156D02*
X004710Y007772D01*
X005738Y008799D01*
X005832Y008760D01*
X006468Y008760D01*
X006611Y008819D01*
X006632Y008840D01*
X007024Y008840D01*
X007095Y008769D01*
X007260Y008700D01*
X008040Y008700D01*
X008205Y008769D01*
X008331Y008895D01*
X008400Y009060D01*
X008400Y009240D01*
X008331Y009405D01*
X008205Y009531D01*
X008040Y009600D01*
X007260Y009600D01*
X007095Y009531D01*
X007024Y009460D01*
X006632Y009460D01*
X006611Y009481D01*
X006468Y009540D01*
X006380Y009540D01*
X006380Y010495D01*
X006245Y010630D01*
X006100Y010775D01*
X006100Y011086D01*
X005836Y011350D01*
X005464Y011350D01*
X005200Y011086D01*
X005200Y010714D01*
X005464Y010450D01*
X005775Y010450D01*
X005920Y010305D01*
X005920Y009540D01*
X005832Y009540D01*
X005689Y009481D01*
X005668Y009460D01*
X005588Y009460D01*
X005474Y009413D01*
X005387Y009326D01*
X005387Y009326D01*
X004224Y008163D01*
X004137Y008076D01*
X004090Y007962D01*
X004090Y007156D01*
X004000Y007066D01*
X004000Y006734D01*
X004090Y006644D01*
X004090Y006406D01*
X004000Y006316D01*
X004000Y005984D01*
X004234Y005750D01*
X004566Y005750D01*
X004800Y005984D01*
X004800Y006316D01*
X004710Y006406D01*
X004710Y006644D01*
X004800Y006734D01*
X004800Y007066D01*
X004710Y007156D01*
X004722Y007144D02*
X005361Y007144D01*
X005262Y007045D02*
X004800Y007045D01*
X004800Y006947D02*
X005164Y006947D01*
X005065Y006848D02*
X004800Y006848D01*
X004800Y006750D02*
X004967Y006750D01*
X004950Y006651D02*
X004717Y006651D01*
X004710Y006553D02*
X004950Y006553D01*
X004950Y006454D02*
X004710Y006454D01*
X004760Y006356D02*
X004950Y006356D01*
X004950Y006257D02*
X004800Y006257D01*
X004800Y006159D02*
X004950Y006159D01*
X004950Y006060D02*
X004800Y006060D01*
X004777Y005962D02*
X004950Y005962D01*
X004950Y005863D02*
X004679Y005863D01*
X004580Y005765D02*
X004950Y005765D01*
X004950Y005666D02*
X000350Y005666D01*
X000350Y005568D02*
X004950Y005568D01*
X005048Y005469D02*
X000350Y005469D01*
X000350Y005371D02*
X005147Y005371D01*
X005245Y005272D02*
X000350Y005272D01*
X000350Y005174D02*
X005344Y005174D01*
X005442Y005075D02*
X000350Y005075D01*
X000350Y004977D02*
X002425Y004977D01*
X002488Y005040D02*
X002260Y004812D01*
X002260Y004680D01*
X002620Y004680D01*
X002620Y005040D01*
X002488Y005040D01*
X002326Y004878D02*
X000350Y004878D01*
X000350Y004780D02*
X002260Y004780D01*
X002260Y004681D02*
X000350Y004681D01*
X000350Y004583D02*
X002260Y004583D01*
X002260Y004620D02*
X002260Y004488D01*
X002488Y004260D01*
X002620Y004260D01*
X002620Y004620D01*
X002260Y004620D01*
X002264Y004484D02*
X000350Y004484D01*
X000350Y004386D02*
X002363Y004386D01*
X002461Y004287D02*
X000350Y004287D01*
X000350Y004189D02*
X003850Y004189D01*
X003850Y004230D02*
X003850Y004070D01*
X003911Y003923D01*
X004023Y003811D01*
X004170Y003750D01*
X004330Y003750D01*
X004477Y003811D01*
X004589Y003923D01*
X004650Y004070D01*
X004650Y004230D01*
X004589Y004377D01*
X004477Y004489D01*
X004330Y004550D01*
X004170Y004550D01*
X004023Y004489D01*
X003911Y004377D01*
X003850Y004230D01*
X003874Y004287D02*
X002839Y004287D01*
X002812Y004260D02*
X003040Y004488D01*
X003040Y004620D01*
X002680Y004620D01*
X002680Y004680D01*
X002620Y004680D01*
X002620Y004620D01*
X002680Y004620D01*
X002680Y004260D01*
X002812Y004260D01*
X002937Y004386D02*
X003920Y004386D01*
X004018Y004484D02*
X003036Y004484D01*
X003040Y004583D02*
X005904Y004583D01*
X005836Y004681D02*
X003040Y004681D01*
X003040Y004680D02*
X003040Y004812D01*
X002812Y005040D01*
X002680Y005040D01*
X002680Y004680D01*
X003040Y004680D01*
X003040Y004780D02*
X005738Y004780D01*
X005639Y004878D02*
X002974Y004878D01*
X002875Y004977D02*
X005541Y004977D01*
X005811Y005272D02*
X007450Y005272D01*
X007450Y005174D02*
X005909Y005174D01*
X006008Y005075D02*
X007450Y005075D01*
X007450Y004977D02*
X006106Y004977D01*
X006205Y004878D02*
X007450Y004878D01*
X007450Y004780D02*
X006303Y004780D01*
X006350Y004681D02*
X007450Y004681D01*
X007450Y004583D02*
X007396Y004583D01*
X007150Y004150D02*
X007150Y002650D01*
X006931Y002317D02*
X004369Y002317D01*
X004312Y002260D02*
X004540Y002488D01*
X004540Y002620D01*
X004180Y002620D01*
X004180Y002680D01*
X004540Y002680D01*
X004540Y002812D01*
X004312Y003040D01*
X004180Y003040D01*
X004180Y002680D01*
X004120Y002680D01*
X004120Y003040D01*
X003988Y003040D01*
X003760Y002812D01*
X003760Y002680D01*
X004120Y002680D01*
X004120Y002620D01*
X004180Y002620D01*
X004180Y002260D01*
X004312Y002260D01*
X004180Y002317D02*
X004120Y002317D01*
X004120Y002260D02*
X004120Y002620D01*
X003760Y002620D01*
X003760Y002488D01*
X003988Y002260D01*
X004120Y002260D01*
X004120Y002416D02*
X004180Y002416D01*
X004180Y002514D02*
X004120Y002514D01*
X004120Y002613D02*
X004180Y002613D01*
X004150Y002650D02*
X003650Y002650D01*
X003400Y002650D01*
X003205Y002531D02*
X003331Y002405D01*
X003400Y002240D01*
X003400Y002060D01*
X003331Y001895D01*
X003205Y001769D01*
X003040Y001700D01*
X002260Y001700D01*
X002095Y001769D01*
X001969Y001895D01*
X001900Y002060D01*
X001900Y002240D01*
X001969Y002405D01*
X002095Y002531D01*
X002260Y002600D01*
X003040Y002600D01*
X003205Y002531D01*
X003222Y002514D02*
X003760Y002514D01*
X003760Y002613D02*
X000350Y002613D01*
X000350Y002711D02*
X003760Y002711D01*
X003760Y002810D02*
X000350Y002810D01*
X000350Y002908D02*
X003856Y002908D01*
X003955Y003007D02*
X000350Y003007D01*
X000350Y003105D02*
X006950Y003105D01*
X006950Y003007D02*
X004345Y003007D01*
X004444Y002908D02*
X006856Y002908D01*
X006760Y002810D02*
X004540Y002810D01*
X004540Y002711D02*
X006760Y002711D01*
X006760Y002613D02*
X004540Y002613D01*
X004540Y002514D02*
X006760Y002514D01*
X006833Y002416D02*
X004467Y002416D01*
X004180Y002711D02*
X004120Y002711D01*
X004120Y002810D02*
X004180Y002810D01*
X004180Y002908D02*
X004120Y002908D01*
X004120Y003007D02*
X004180Y003007D01*
X003833Y002416D02*
X003321Y002416D01*
X003368Y002317D02*
X003931Y002317D01*
X003650Y002650D02*
X003650Y001150D01*
X002650Y001150D01*
X002700Y001135D02*
X004261Y001135D01*
X004261Y001100D02*
X003732Y001100D01*
X003746Y001014D01*
X003774Y000927D01*
X003815Y000846D01*
X003869Y000772D01*
X003934Y000708D01*
X004007Y000654D01*
X004089Y000612D01*
X004176Y000584D01*
X004261Y000571D01*
X004261Y001100D01*
X004261Y001200D01*
X003732Y001200D01*
X003746Y001286D01*
X003774Y001373D01*
X003815Y001454D01*
X003869Y001528D01*
X003934Y001592D01*
X004007Y001646D01*
X004089Y001688D01*
X004176Y001716D01*
X004261Y001729D01*
X004261Y001200D01*
X004361Y001200D01*
X004361Y001729D01*
X004447Y001716D01*
X004534Y001688D01*
X004615Y001646D01*
X004689Y001592D01*
X004754Y001528D01*
X004807Y001454D01*
X004849Y001373D01*
X004877Y001286D01*
X004891Y001200D01*
X004361Y001200D01*
X004361Y001100D01*
X004361Y000571D01*
X004447Y000584D01*
X004534Y000612D01*
X004615Y000654D01*
X004689Y000708D01*
X004754Y000772D01*
X004807Y000846D01*
X004849Y000927D01*
X004877Y001014D01*
X004891Y001100D01*
X004361Y001100D01*
X004261Y001100D01*
X004261Y001037D02*
X004361Y001037D01*
X004361Y001135D02*
X006409Y001135D01*
X006409Y001037D02*
X004881Y001037D01*
X004852Y000938D02*
X006449Y000938D01*
X006489Y000840D02*
X004803Y000840D01*
X004723Y000741D02*
X006577Y000741D01*
X006698Y000643D02*
X004593Y000643D01*
X004361Y000643D02*
X004261Y000643D01*
X004261Y000741D02*
X004361Y000741D01*
X004361Y000840D02*
X004261Y000840D01*
X004261Y000938D02*
X004361Y000938D01*
X004311Y001150D02*
X003650Y001150D01*
X003737Y001234D02*
X003392Y001234D01*
X003389Y001255D02*
X003367Y001323D01*
X003335Y001386D01*
X003293Y001443D01*
X003243Y001493D01*
X003186Y001535D01*
X003123Y001567D01*
X003055Y001589D01*
X002985Y001600D01*
X002700Y001600D01*
X002700Y001200D01*
X002600Y001200D01*
X002600Y001600D01*
X002315Y001600D01*
X002245Y001589D01*
X002177Y001567D01*
X002114Y001535D01*
X002057Y001493D01*
X002007Y001443D01*
X001965Y001386D01*
X001933Y001323D01*
X001911Y001255D01*
X001902Y001200D01*
X002600Y001200D01*
X002600Y001100D01*
X002700Y001100D01*
X002700Y001200D01*
X003398Y001200D01*
X003389Y001255D01*
X003362Y001332D02*
X003761Y001332D01*
X003803Y001431D02*
X003302Y001431D01*
X003194Y001529D02*
X003870Y001529D01*
X003982Y001628D02*
X000350Y001628D01*
X000350Y001726D02*
X002198Y001726D01*
X002106Y001529D02*
X000350Y001529D01*
X000350Y001431D02*
X001998Y001431D01*
X001938Y001332D02*
X000350Y001332D01*
X000350Y001234D02*
X001908Y001234D01*
X001902Y001100D02*
X001911Y001045D01*
X001933Y000977D01*
X001965Y000914D01*
X002007Y000857D01*
X002057Y000807D01*
X002114Y000765D01*
X002177Y000733D01*
X002245Y000711D01*
X002315Y000700D01*
X002600Y000700D01*
X002600Y001100D01*
X001902Y001100D01*
X001914Y001037D02*
X000359Y001037D01*
X000351Y001135D02*
X002600Y001135D01*
X002600Y001037D02*
X002700Y001037D01*
X002700Y001100D02*
X002700Y000700D01*
X002985Y000700D01*
X003055Y000711D01*
X003123Y000733D01*
X003186Y000765D01*
X003243Y000807D01*
X003293Y000857D01*
X003335Y000914D01*
X003367Y000977D01*
X003389Y001045D01*
X003398Y001100D01*
X002700Y001100D01*
X002700Y001234D02*
X002600Y001234D01*
X002600Y001332D02*
X002700Y001332D01*
X002700Y001431D02*
X002600Y001431D01*
X002600Y001529D02*
X002700Y001529D01*
X003102Y001726D02*
X004241Y001726D01*
X004261Y001726D02*
X004361Y001726D01*
X004382Y001726D02*
X006864Y001726D01*
X006646Y001628D02*
X004641Y001628D01*
X004753Y001529D02*
X006547Y001529D01*
X006477Y001431D02*
X004819Y001431D01*
X004862Y001332D02*
X006436Y001332D01*
X006409Y001234D02*
X004885Y001234D01*
X004361Y001234D02*
X004261Y001234D01*
X004261Y001332D02*
X004361Y001332D01*
X004361Y001431D02*
X004261Y001431D01*
X004261Y001529D02*
X004361Y001529D01*
X004361Y001628D02*
X004261Y001628D01*
X003742Y001037D02*
X003386Y001037D01*
X003347Y000938D02*
X003770Y000938D01*
X003820Y000840D02*
X003276Y000840D01*
X003139Y000741D02*
X003900Y000741D01*
X004030Y000643D02*
X000542Y000643D01*
X000470Y000741D02*
X002161Y000741D01*
X002024Y000840D02*
X000420Y000840D01*
X000388Y000938D02*
X001953Y000938D01*
X002600Y000938D02*
X002700Y000938D01*
X002700Y000840D02*
X002600Y000840D01*
X002600Y000741D02*
X002700Y000741D01*
X003261Y001825D02*
X007380Y001825D01*
X007450Y001923D02*
X003343Y001923D01*
X003384Y002022D02*
X007450Y002022D01*
X007450Y002120D02*
X003400Y002120D01*
X003400Y002219D02*
X007450Y002219D01*
X007450Y002317D02*
X007369Y002317D01*
X007650Y001811D02*
X007650Y006150D01*
X006150Y006150D01*
X006478Y005765D02*
X007105Y005765D01*
X007001Y005863D02*
X006655Y005863D01*
X006727Y006356D02*
X006948Y006356D01*
X007018Y006454D02*
X006638Y006454D01*
X006640Y006848D02*
X007016Y006848D01*
X006947Y006947D02*
X006728Y006947D01*
X006653Y007439D02*
X007003Y007439D01*
X007110Y007538D02*
X006474Y007538D01*
X006468Y007760D02*
X006611Y007819D01*
X006721Y007929D01*
X006729Y007950D01*
X006946Y007950D01*
X006969Y007895D01*
X007095Y007769D01*
X007260Y007700D01*
X008040Y007700D01*
X008205Y007769D01*
X008331Y007895D01*
X008400Y008060D01*
X008400Y008240D01*
X008331Y008405D01*
X008205Y008531D01*
X008040Y008600D01*
X007260Y008600D01*
X007095Y008531D01*
X006969Y008405D01*
X006946Y008350D01*
X006729Y008350D01*
X006721Y008371D01*
X006611Y008481D01*
X006468Y008540D01*
X005832Y008540D01*
X005689Y008481D01*
X005579Y008371D01*
X005520Y008228D01*
X005520Y008072D01*
X005579Y007929D01*
X005689Y007819D01*
X005832Y007760D01*
X006468Y007760D01*
X006625Y007833D02*
X007031Y007833D01*
X006953Y007932D02*
X006722Y007932D01*
X006668Y008424D02*
X006988Y008424D01*
X007086Y008523D02*
X006510Y008523D01*
X006608Y008818D02*
X007046Y008818D01*
X007213Y008720D02*
X005658Y008720D01*
X005559Y008621D02*
X008950Y008621D01*
X008950Y008523D02*
X008214Y008523D01*
X008312Y008424D02*
X008950Y008424D01*
X008950Y008326D02*
X008364Y008326D01*
X008400Y008227D02*
X008950Y008227D01*
X008950Y008129D02*
X008400Y008129D01*
X008387Y008030D02*
X008950Y008030D01*
X008950Y007932D02*
X008347Y007932D01*
X008269Y007833D02*
X008950Y007833D01*
X008950Y007735D02*
X008123Y007735D01*
X007650Y008150D02*
X006150Y008150D01*
X005790Y008523D02*
X005461Y008523D01*
X005362Y008424D02*
X005632Y008424D01*
X005561Y008326D02*
X005264Y008326D01*
X005165Y008227D02*
X005520Y008227D01*
X005520Y008129D02*
X005067Y008129D01*
X004968Y008030D02*
X005538Y008030D01*
X005578Y007932D02*
X004870Y007932D01*
X004771Y007833D02*
X005675Y007833D01*
X005650Y007150D02*
X006150Y007150D01*
X007650Y007150D01*
X007177Y007735D02*
X004710Y007735D01*
X004289Y008227D02*
X003780Y008227D01*
X003780Y008228D02*
X003721Y008371D01*
X003611Y008481D01*
X003468Y008540D01*
X002832Y008540D01*
X002689Y008481D01*
X002579Y008371D01*
X002571Y008350D01*
X002354Y008350D01*
X002331Y008405D01*
X002205Y008531D01*
X002040Y008600D01*
X001260Y008600D01*
X001095Y008531D01*
X000969Y008405D01*
X000900Y008240D01*
X000900Y008060D01*
X000969Y007895D01*
X001095Y007769D01*
X001260Y007700D01*
X002040Y007700D01*
X002205Y007769D01*
X002331Y007895D01*
X002354Y007950D01*
X002571Y007950D01*
X002579Y007929D01*
X002689Y007819D01*
X002832Y007760D01*
X003468Y007760D01*
X003611Y007819D01*
X003721Y007929D01*
X003780Y008072D01*
X003780Y008228D01*
X003780Y008129D02*
X004190Y008129D01*
X004224Y008163D02*
X004224Y008163D01*
X004118Y008030D02*
X003762Y008030D01*
X003722Y007932D02*
X004090Y007932D01*
X004090Y007833D02*
X003625Y007833D01*
X003474Y007538D02*
X004090Y007538D01*
X004090Y007636D02*
X000350Y007636D01*
X000350Y007538D02*
X001110Y007538D01*
X001095Y007531D02*
X000969Y007405D01*
X000900Y007240D01*
X000900Y007060D01*
X000969Y006895D01*
X001095Y006769D01*
X001260Y006700D01*
X002040Y006700D01*
X002205Y006769D01*
X002331Y006895D01*
X002354Y006950D01*
X002571Y006950D01*
X002579Y006929D01*
X002689Y006819D01*
X002832Y006760D01*
X003468Y006760D01*
X003611Y006819D01*
X003721Y006929D01*
X003780Y007072D01*
X003780Y007228D01*
X003721Y007371D01*
X003611Y007481D01*
X003468Y007540D01*
X002832Y007540D01*
X002689Y007481D01*
X002579Y007371D01*
X002571Y007350D01*
X002354Y007350D01*
X002331Y007405D01*
X002205Y007531D01*
X002040Y007600D01*
X001260Y007600D01*
X001095Y007531D01*
X001003Y007439D02*
X000350Y007439D01*
X000350Y007341D02*
X000942Y007341D01*
X000901Y007242D02*
X000350Y007242D01*
X000350Y007144D02*
X000900Y007144D01*
X000906Y007045D02*
X000350Y007045D01*
X000350Y006947D02*
X000947Y006947D01*
X001016Y006848D02*
X000350Y006848D01*
X000350Y006750D02*
X001141Y006750D01*
X001177Y006567D02*
X001114Y006535D01*
X001057Y006493D01*
X001007Y006443D01*
X000965Y006386D01*
X000933Y006323D01*
X000911Y006255D01*
X000902Y006200D01*
X001600Y006200D01*
X001600Y006600D01*
X001315Y006600D01*
X001245Y006589D01*
X001177Y006567D01*
X001149Y006553D02*
X000350Y006553D01*
X000350Y006651D02*
X004083Y006651D01*
X004090Y006553D02*
X002151Y006553D01*
X002123Y006567D02*
X002186Y006535D01*
X002243Y006493D01*
X002293Y006443D01*
X002335Y006386D01*
X002367Y006323D01*
X002389Y006255D01*
X002398Y006200D01*
X001700Y006200D01*
X001600Y006200D01*
X001600Y006100D01*
X001700Y006100D01*
X001700Y006200D01*
X001700Y006600D01*
X001985Y006600D01*
X002055Y006589D01*
X002123Y006567D01*
X002159Y006750D02*
X004000Y006750D01*
X004000Y006848D02*
X003640Y006848D01*
X003728Y006947D02*
X004000Y006947D01*
X004000Y007045D02*
X003769Y007045D01*
X003780Y007144D02*
X004078Y007144D01*
X004090Y007242D02*
X003774Y007242D01*
X003733Y007341D02*
X004090Y007341D01*
X004090Y007439D02*
X003653Y007439D01*
X004090Y007735D02*
X002123Y007735D01*
X002269Y007833D02*
X002675Y007833D01*
X002578Y007932D02*
X002347Y007932D01*
X002190Y007538D02*
X002826Y007538D01*
X002647Y007439D02*
X002297Y007439D01*
X002353Y006947D02*
X002572Y006947D01*
X002660Y006848D02*
X002284Y006848D01*
X002282Y006454D02*
X002663Y006454D01*
X002661Y006453D02*
X002607Y006399D01*
X002564Y006335D01*
X002535Y006264D01*
X002520Y006188D01*
X002520Y006180D01*
X003120Y006180D01*
X003120Y006540D01*
X002872Y006540D01*
X002796Y006525D01*
X002725Y006496D01*
X002661Y006453D01*
X002578Y006356D02*
X002350Y006356D01*
X002388Y006257D02*
X002534Y006257D01*
X002520Y006120D02*
X002520Y006112D01*
X002535Y006036D01*
X002564Y005965D01*
X002607Y005901D01*
X002661Y005847D01*
X002725Y005804D01*
X002796Y005775D01*
X002872Y005760D01*
X003120Y005760D01*
X003120Y006120D01*
X003180Y006120D01*
X003180Y006180D01*
X003120Y006180D01*
X003120Y006120D01*
X002520Y006120D01*
X002530Y006060D02*
X002391Y006060D01*
X002389Y006045D02*
X002398Y006100D01*
X001700Y006100D01*
X001700Y005700D01*
X001985Y005700D01*
X002055Y005711D01*
X002123Y005733D01*
X002186Y005765D01*
X002243Y005807D01*
X002293Y005857D01*
X002335Y005914D01*
X002367Y005977D01*
X002389Y006045D01*
X002359Y005962D02*
X002567Y005962D01*
X002645Y005863D02*
X002298Y005863D01*
X002185Y005765D02*
X002849Y005765D01*
X003120Y005765D02*
X003180Y005765D01*
X003180Y005760D02*
X003428Y005760D01*
X003504Y005775D01*
X003575Y005804D01*
X003639Y005847D01*
X003693Y005901D01*
X003736Y005965D01*
X003765Y006036D01*
X003780Y006112D01*
X003780Y006120D01*
X003180Y006120D01*
X003180Y005760D01*
X003180Y005863D02*
X003120Y005863D01*
X003120Y005962D02*
X003180Y005962D01*
X003180Y006060D02*
X003120Y006060D01*
X003150Y006150D02*
X003150Y004650D01*
X002650Y004650D01*
X002620Y004681D02*
X002680Y004681D01*
X002680Y004583D02*
X002620Y004583D01*
X002620Y004484D02*
X002680Y004484D01*
X002680Y004386D02*
X002620Y004386D01*
X002620Y004287D02*
X002680Y004287D01*
X002812Y004040D02*
X002488Y004040D01*
X002260Y003812D01*
X002260Y003488D01*
X002488Y003260D01*
X002812Y003260D01*
X003040Y003488D01*
X003040Y003812D01*
X002812Y004040D01*
X002860Y003992D02*
X003883Y003992D01*
X003850Y004090D02*
X000350Y004090D01*
X000350Y003992D02*
X002440Y003992D01*
X002341Y003893D02*
X000350Y003893D01*
X000350Y003795D02*
X002260Y003795D01*
X002260Y003696D02*
X000350Y003696D01*
X000350Y003598D02*
X002260Y003598D01*
X002260Y003499D02*
X000350Y003499D01*
X000350Y003401D02*
X002348Y003401D01*
X002446Y003302D02*
X000350Y003302D01*
X000350Y003204D02*
X006950Y003204D01*
X006950Y003302D02*
X002854Y003302D01*
X002952Y003401D02*
X006950Y003401D01*
X006950Y003499D02*
X003040Y003499D01*
X003040Y003598D02*
X006950Y003598D01*
X006925Y003696D02*
X006375Y003696D01*
X006473Y003795D02*
X006827Y003795D01*
X006728Y003893D02*
X006572Y003893D01*
X006630Y003992D02*
X006670Y003992D01*
X006670Y004090D02*
X006630Y004090D01*
X006630Y004189D02*
X006670Y004189D01*
X006670Y004287D02*
X006630Y004287D01*
X006593Y004386D02*
X006707Y004386D01*
X006805Y004484D02*
X006495Y004484D01*
X006396Y004583D02*
X006904Y004583D01*
X007450Y005371D02*
X005712Y005371D01*
X005614Y005469D02*
X007450Y005469D01*
X007450Y005568D02*
X005515Y005568D01*
X005417Y005666D02*
X007450Y005666D01*
X007146Y006553D02*
X005350Y006553D01*
X005350Y006454D02*
X005662Y006454D01*
X005573Y006356D02*
X005350Y006356D01*
X005350Y006257D02*
X005532Y006257D01*
X005520Y006159D02*
X005350Y006159D01*
X005350Y006060D02*
X005525Y006060D01*
X005566Y005962D02*
X005350Y005962D01*
X005350Y005863D02*
X005645Y005863D01*
X005822Y005765D02*
X005350Y005765D01*
X005150Y005650D02*
X005150Y006650D01*
X005650Y007150D01*
X005631Y006848D02*
X005660Y006848D01*
X005532Y006750D02*
X007141Y006750D01*
X008087Y008720D02*
X008950Y008720D01*
X008950Y008818D02*
X008254Y008818D01*
X008340Y008917D02*
X008950Y008917D01*
X008950Y009015D02*
X008381Y009015D01*
X008400Y009114D02*
X008950Y009114D01*
X008950Y009212D02*
X008400Y009212D01*
X008371Y009311D02*
X008950Y009311D01*
X008950Y009409D02*
X008327Y009409D01*
X008229Y009508D02*
X008950Y009508D01*
X008950Y009606D02*
X006380Y009606D01*
X006380Y009705D02*
X008950Y009705D01*
X008950Y009803D02*
X006380Y009803D01*
X006380Y009902D02*
X008950Y009902D01*
X008950Y010000D02*
X006380Y010000D01*
X006380Y010099D02*
X008950Y010099D01*
X008950Y010197D02*
X006380Y010197D01*
X006380Y010296D02*
X008950Y010296D01*
X008950Y010394D02*
X006380Y010394D01*
X006380Y010493D02*
X008950Y010493D01*
X008950Y010591D02*
X006284Y010591D01*
X006186Y010690D02*
X008950Y010690D01*
X008950Y010788D02*
X006100Y010788D01*
X006100Y010887D02*
X008950Y010887D01*
X008950Y010985D02*
X006100Y010985D01*
X006100Y011084D02*
X007702Y011084D01*
X007735Y011070D02*
X008065Y011070D01*
X008370Y011196D01*
X008604Y011430D01*
X008730Y011735D01*
X008730Y012065D01*
X008604Y012370D01*
X008370Y012604D01*
X008065Y012730D01*
X007735Y012730D01*
X007430Y012604D01*
X007196Y012370D01*
X007070Y012065D01*
X007070Y011735D01*
X007196Y011430D01*
X007430Y011196D01*
X007735Y011070D01*
X007465Y011182D02*
X006004Y011182D01*
X005906Y011281D02*
X007346Y011281D01*
X007247Y011379D02*
X003412Y011379D01*
X003464Y011350D02*
X003350Y011236D01*
X003350Y011317D01*
X003483Y011450D01*
X003836Y011450D01*
X004100Y011714D01*
X004100Y012086D01*
X003836Y012350D01*
X003464Y012350D01*
X003200Y012086D01*
X003200Y011733D01*
X003067Y011600D01*
X002950Y011483D01*
X002950Y009540D01*
X002832Y009540D01*
X002689Y009481D01*
X002579Y009371D01*
X002571Y009350D01*
X002354Y009350D01*
X002331Y009405D01*
X002205Y009531D01*
X002040Y009600D01*
X001260Y009600D01*
X001095Y009531D01*
X000969Y009405D01*
X000900Y009240D01*
X000900Y009060D01*
X000969Y008895D01*
X001095Y008769D01*
X001260Y008700D01*
X002040Y008700D01*
X002205Y008769D01*
X002331Y008895D01*
X002354Y008950D01*
X002571Y008950D01*
X002579Y008929D01*
X002689Y008819D01*
X002832Y008760D01*
X003468Y008760D01*
X003611Y008819D01*
X003721Y008929D01*
X003780Y009072D01*
X003780Y009228D01*
X003721Y009371D01*
X003611Y009481D01*
X003468Y009540D01*
X003350Y009540D01*
X003350Y010564D01*
X003464Y010450D01*
X003600Y010450D01*
X003600Y010850D01*
X003700Y010850D01*
X003700Y010950D01*
X003600Y010950D01*
X003600Y011350D01*
X003464Y011350D01*
X003394Y011281D02*
X003350Y011281D01*
X003600Y011281D02*
X003700Y011281D01*
X003700Y011350D02*
X003700Y010950D01*
X004100Y010950D01*
X004100Y011086D01*
X003836Y011350D01*
X003700Y011350D01*
X003700Y011182D02*
X003600Y011182D01*
X003600Y011084D02*
X003700Y011084D01*
X003700Y010985D02*
X003600Y010985D01*
X003650Y010900D02*
X003650Y010400D01*
X003900Y010150D01*
X003900Y006150D01*
X003150Y006150D01*
X001650Y006150D01*
X001700Y006159D02*
X003120Y006159D01*
X003180Y006159D02*
X004000Y006159D01*
X004000Y006257D02*
X003766Y006257D01*
X003765Y006264D02*
X003736Y006335D01*
X003693Y006399D01*
X003639Y006453D01*
X003575Y006496D01*
X003504Y006525D01*
X003428Y006540D01*
X003180Y006540D01*
X003180Y006180D01*
X003780Y006180D01*
X003780Y006188D01*
X003765Y006264D01*
X003722Y006356D02*
X004040Y006356D01*
X004090Y006454D02*
X003637Y006454D01*
X003770Y006060D02*
X004000Y006060D01*
X004023Y005962D02*
X003733Y005962D01*
X003655Y005863D02*
X004121Y005863D01*
X004220Y005765D02*
X003451Y005765D01*
X003180Y006257D02*
X003120Y006257D01*
X003120Y006356D02*
X003180Y006356D01*
X003180Y006454D02*
X003120Y006454D01*
X003150Y007150D02*
X001650Y007150D01*
X001600Y006553D02*
X001700Y006553D01*
X001700Y006454D02*
X001600Y006454D01*
X001600Y006356D02*
X001700Y006356D01*
X001700Y006257D02*
X001600Y006257D01*
X001600Y006159D02*
X000350Y006159D01*
X000350Y006257D02*
X000912Y006257D01*
X000950Y006356D02*
X000350Y006356D01*
X000350Y006454D02*
X001018Y006454D01*
X000902Y006100D02*
X000911Y006045D01*
X000933Y005977D01*
X000965Y005914D01*
X001007Y005857D01*
X001057Y005807D01*
X001114Y005765D01*
X001177Y005733D01*
X001245Y005711D01*
X001315Y005700D01*
X001600Y005700D01*
X001600Y006100D01*
X000902Y006100D01*
X000909Y006060D02*
X000350Y006060D01*
X000350Y005962D02*
X000941Y005962D01*
X001002Y005863D02*
X000350Y005863D01*
X000350Y005765D02*
X001115Y005765D01*
X001600Y005765D02*
X001700Y005765D01*
X001700Y005863D02*
X001600Y005863D01*
X001600Y005962D02*
X001700Y005962D01*
X001700Y006060D02*
X001600Y006060D01*
X002620Y004977D02*
X002680Y004977D01*
X002680Y004878D02*
X002620Y004878D01*
X002620Y004780D02*
X002680Y004780D01*
X002959Y003893D02*
X003941Y003893D01*
X004063Y003795D02*
X003040Y003795D01*
X003040Y003696D02*
X005925Y003696D01*
X005827Y003795D02*
X005260Y003795D01*
X005216Y003750D02*
X005450Y003984D01*
X005450Y004120D01*
X005080Y004120D01*
X005080Y004180D01*
X005450Y004180D01*
X005450Y004316D01*
X005216Y004550D01*
X005080Y004550D01*
X005080Y004180D01*
X005020Y004180D01*
X005020Y004550D01*
X004884Y004550D01*
X004650Y004316D01*
X004650Y004180D01*
X005020Y004180D01*
X005020Y004120D01*
X005080Y004120D01*
X005080Y003750D01*
X005216Y003750D01*
X005359Y003893D02*
X005728Y003893D01*
X005670Y003992D02*
X005450Y003992D01*
X005450Y004090D02*
X005670Y004090D01*
X005670Y004189D02*
X005450Y004189D01*
X005450Y004287D02*
X005670Y004287D01*
X005707Y004386D02*
X005380Y004386D01*
X005282Y004484D02*
X005805Y004484D01*
X006150Y004650D02*
X006150Y004150D01*
X006150Y004650D02*
X005150Y005650D01*
X005050Y004650D02*
X005050Y004150D01*
X005020Y004120D02*
X005020Y003750D01*
X004884Y003750D01*
X004650Y003984D01*
X004650Y004120D01*
X005020Y004120D01*
X005020Y004090D02*
X005080Y004090D01*
X005080Y003992D02*
X005020Y003992D01*
X005020Y003893D02*
X005080Y003893D01*
X005080Y003795D02*
X005020Y003795D01*
X004840Y003795D02*
X004437Y003795D01*
X004559Y003893D02*
X004741Y003893D01*
X004650Y003992D02*
X004617Y003992D01*
X004650Y004090D02*
X004650Y004090D01*
X004650Y004189D02*
X004650Y004189D01*
X004650Y004287D02*
X004626Y004287D01*
X004580Y004386D02*
X004720Y004386D01*
X004818Y004484D02*
X004482Y004484D01*
X005020Y004484D02*
X005080Y004484D01*
X005080Y004386D02*
X005020Y004386D01*
X005020Y004287D02*
X005080Y004287D01*
X005080Y004189D02*
X005020Y004189D01*
X005434Y006651D02*
X008950Y006651D01*
X007071Y009508D02*
X006546Y009508D01*
X005920Y009606D02*
X003350Y009606D01*
X003350Y009705D02*
X005920Y009705D01*
X005920Y009803D02*
X003350Y009803D01*
X003350Y009902D02*
X005920Y009902D01*
X005920Y010000D02*
X003350Y010000D01*
X003350Y010099D02*
X005920Y010099D01*
X005920Y010197D02*
X003350Y010197D01*
X003350Y010296D02*
X005920Y010296D01*
X005831Y010394D02*
X003350Y010394D01*
X003350Y010493D02*
X003421Y010493D01*
X003600Y010493D02*
X003700Y010493D01*
X003700Y010450D02*
X003836Y010450D01*
X004100Y010714D01*
X004100Y010850D01*
X003700Y010850D01*
X003700Y010450D01*
X003700Y010591D02*
X003600Y010591D01*
X003600Y010690D02*
X003700Y010690D01*
X003700Y010788D02*
X003600Y010788D01*
X003700Y010887D02*
X004200Y010887D01*
X004200Y010985D02*
X004100Y010985D01*
X004100Y011084D02*
X004200Y011084D01*
X004200Y011086D02*
X004200Y010714D01*
X004464Y010450D01*
X004836Y010450D01*
X005100Y010714D01*
X005100Y011086D01*
X004836Y011350D01*
X004464Y011350D01*
X004200Y011086D01*
X004296Y011182D02*
X004004Y011182D01*
X003906Y011281D02*
X004394Y011281D01*
X004464Y011450D02*
X004836Y011450D01*
X005100Y011714D01*
X005100Y012086D01*
X004836Y012350D01*
X004464Y012350D01*
X004200Y012086D01*
X004200Y011714D01*
X004464Y011450D01*
X004436Y011478D02*
X003864Y011478D01*
X003962Y011576D02*
X004338Y011576D01*
X004239Y011675D02*
X004061Y011675D01*
X004100Y011773D02*
X004200Y011773D01*
X004200Y011872D02*
X004100Y011872D01*
X004100Y011970D02*
X004200Y011970D01*
X004200Y012069D02*
X004100Y012069D01*
X004019Y012167D02*
X004281Y012167D01*
X004379Y012266D02*
X003921Y012266D01*
X003650Y011900D02*
X003150Y011400D01*
X003150Y009150D01*
X001650Y009150D01*
X001213Y008720D02*
X000350Y008720D01*
X000350Y008818D02*
X001046Y008818D01*
X000960Y008917D02*
X000350Y008917D01*
X000350Y009015D02*
X000919Y009015D01*
X000900Y009114D02*
X000350Y009114D01*
X000350Y009212D02*
X000900Y009212D01*
X000929Y009311D02*
X000350Y009311D01*
X000350Y009409D02*
X000973Y009409D01*
X001071Y009508D02*
X000350Y009508D01*
X000350Y009606D02*
X002950Y009606D01*
X002950Y009705D02*
X000350Y009705D01*
X000350Y009803D02*
X002950Y009803D01*
X002950Y009902D02*
X000350Y009902D01*
X000350Y010000D02*
X002950Y010000D01*
X002950Y010099D02*
X000350Y010099D01*
X000350Y010197D02*
X002950Y010197D01*
X002950Y010296D02*
X000350Y010296D01*
X000350Y010394D02*
X002950Y010394D01*
X002950Y010493D02*
X000350Y010493D01*
X000350Y010591D02*
X002950Y010591D01*
X002950Y010690D02*
X000350Y010690D01*
X000350Y010788D02*
X002950Y010788D01*
X002950Y010887D02*
X000350Y010887D01*
X000350Y010985D02*
X002950Y010985D01*
X002950Y011084D02*
X001598Y011084D01*
X001565Y011070D02*
X001870Y011196D01*
X002104Y011430D01*
X002230Y011735D01*
X002230Y012065D01*
X002104Y012370D01*
X001870Y012604D01*
X001565Y012730D01*
X001235Y012730D01*
X000930Y012604D01*
X000696Y012370D01*
X000570Y012065D01*
X000570Y011735D01*
X000696Y011430D01*
X000930Y011196D01*
X001235Y011070D01*
X001565Y011070D01*
X001835Y011182D02*
X002950Y011182D01*
X002950Y011281D02*
X001954Y011281D01*
X002053Y011379D02*
X002950Y011379D01*
X002950Y011478D02*
X002123Y011478D01*
X002164Y011576D02*
X003043Y011576D01*
X003142Y011675D02*
X002205Y011675D01*
X002230Y011773D02*
X003200Y011773D01*
X003200Y011872D02*
X002230Y011872D01*
X002230Y011970D02*
X003200Y011970D01*
X003200Y012069D02*
X002228Y012069D01*
X002188Y012167D02*
X003281Y012167D01*
X003379Y012266D02*
X002147Y012266D01*
X002106Y012364D02*
X007194Y012364D01*
X007153Y012266D02*
X006097Y012266D01*
X006100Y012262D02*
X006012Y012350D01*
X005288Y012350D01*
X005200Y012262D01*
X005200Y011538D01*
X005288Y011450D01*
X006012Y011450D01*
X006100Y011538D01*
X006100Y012262D01*
X006100Y012167D02*
X007112Y012167D01*
X007072Y012069D02*
X006100Y012069D01*
X006100Y011970D02*
X007070Y011970D01*
X007070Y011872D02*
X006100Y011872D01*
X006100Y011773D02*
X007070Y011773D01*
X007095Y011675D02*
X006100Y011675D01*
X006100Y011576D02*
X007136Y011576D01*
X007177Y011478D02*
X006040Y011478D01*
X005394Y011281D02*
X004906Y011281D01*
X005004Y011182D02*
X005296Y011182D01*
X005200Y011084D02*
X005100Y011084D01*
X005100Y010985D02*
X005200Y010985D01*
X005200Y010887D02*
X005100Y010887D01*
X005100Y010788D02*
X005200Y010788D01*
X005224Y010690D02*
X005076Y010690D01*
X004977Y010591D02*
X005323Y010591D01*
X005421Y010493D02*
X004879Y010493D01*
X004421Y010493D02*
X003879Y010493D01*
X003977Y010591D02*
X004323Y010591D01*
X004224Y010690D02*
X004076Y010690D01*
X004100Y010788D02*
X004200Y010788D01*
X004864Y011478D02*
X005260Y011478D01*
X005200Y011576D02*
X004962Y011576D01*
X005061Y011675D02*
X005200Y011675D01*
X005200Y011773D02*
X005100Y011773D01*
X005100Y011872D02*
X005200Y011872D01*
X005200Y011970D02*
X005100Y011970D01*
X005100Y012069D02*
X005200Y012069D01*
X005200Y012167D02*
X005019Y012167D01*
X004921Y012266D02*
X005203Y012266D01*
X005754Y009508D02*
X003546Y009508D01*
X003683Y009409D02*
X005471Y009409D01*
X005372Y009311D02*
X003746Y009311D01*
X003780Y009212D02*
X005274Y009212D01*
X005175Y009114D02*
X003780Y009114D01*
X003756Y009015D02*
X005077Y009015D01*
X004978Y008917D02*
X003708Y008917D01*
X003608Y008818D02*
X004880Y008818D01*
X004781Y008720D02*
X002087Y008720D01*
X002214Y008523D02*
X002790Y008523D01*
X002632Y008424D02*
X002312Y008424D01*
X002254Y008818D02*
X002692Y008818D01*
X002592Y008917D02*
X002340Y008917D01*
X002327Y009409D02*
X002617Y009409D01*
X002754Y009508D02*
X002229Y009508D01*
X001650Y008150D02*
X003150Y008150D01*
X003510Y008523D02*
X004584Y008523D01*
X004683Y008621D02*
X000350Y008621D01*
X000350Y008523D02*
X001086Y008523D01*
X000988Y008424D02*
X000350Y008424D01*
X000350Y008326D02*
X000936Y008326D01*
X000900Y008227D02*
X000350Y008227D01*
X000350Y008129D02*
X000900Y008129D01*
X000913Y008030D02*
X000350Y008030D01*
X000350Y007932D02*
X000953Y007932D01*
X001031Y007833D02*
X000350Y007833D01*
X000350Y007735D02*
X001177Y007735D01*
X001202Y011084D02*
X000350Y011084D01*
X000350Y011182D02*
X000965Y011182D01*
X000846Y011281D02*
X000350Y011281D01*
X000350Y011379D02*
X000747Y011379D01*
X000677Y011478D02*
X000350Y011478D01*
X000350Y011576D02*
X000636Y011576D01*
X000595Y011675D02*
X000350Y011675D01*
X000350Y011773D02*
X000570Y011773D01*
X000570Y011872D02*
X000350Y011872D01*
X000350Y011970D02*
X000570Y011970D01*
X000572Y012069D02*
X000350Y012069D01*
X000351Y012167D02*
X000612Y012167D01*
X000653Y012266D02*
X000359Y012266D01*
X000389Y012364D02*
X000694Y012364D01*
X000789Y012463D02*
X000421Y012463D01*
X000472Y012561D02*
X000887Y012561D01*
X001065Y012660D02*
X000544Y012660D01*
X000643Y012758D02*
X008657Y012758D01*
X008756Y012660D02*
X008235Y012660D01*
X008413Y012561D02*
X008828Y012561D01*
X008879Y012463D02*
X008511Y012463D01*
X008606Y012364D02*
X008911Y012364D01*
X008941Y012266D02*
X008647Y012266D01*
X008688Y012167D02*
X008949Y012167D01*
X008950Y012069D02*
X008728Y012069D01*
X008730Y011970D02*
X008950Y011970D01*
X008950Y011872D02*
X008730Y011872D01*
X008730Y011773D02*
X008950Y011773D01*
X008950Y011675D02*
X008705Y011675D01*
X008664Y011576D02*
X008950Y011576D01*
X008950Y011478D02*
X008623Y011478D01*
X008553Y011379D02*
X008950Y011379D01*
X008950Y011281D02*
X008454Y011281D01*
X008335Y011182D02*
X008950Y011182D01*
X008950Y011084D02*
X008098Y011084D01*
X007289Y012463D02*
X002011Y012463D01*
X001913Y012561D02*
X007387Y012561D01*
X007565Y012660D02*
X001735Y012660D01*
X000778Y012857D02*
X008522Y012857D01*
X004486Y008424D02*
X003668Y008424D01*
X003739Y008326D02*
X004387Y008326D01*
X002078Y002514D02*
X000350Y002514D01*
X000350Y002416D02*
X001979Y002416D01*
X001932Y002317D02*
X000350Y002317D01*
X000350Y002219D02*
X001900Y002219D01*
X001900Y002120D02*
X000350Y002120D01*
X000350Y002022D02*
X001916Y002022D01*
X001957Y001923D02*
X000350Y001923D01*
X000350Y001825D02*
X002039Y001825D01*
X000775Y000446D02*
X008525Y000446D01*
X007650Y001811D02*
X006989Y001150D01*
X007114Y001726D02*
X007282Y001726D01*
M02*
