%
M48
M72
T01C0.0197
T02C0.0320
T03C0.0400
T04C0.0472
T05C0.1260
%
T01
X4400Y6150
X4400Y6900
T02
X3150Y7150
X3150Y6150
X2650Y4650
X2650Y3650
X4150Y2650
X4250Y4150
X5050Y4150
X6150Y4150
X7150Y4150
X7150Y2650
X6150Y6150
X6150Y7150
X6150Y8150
X6150Y9150
X3150Y9150
X3150Y8150
T03
X2650Y1150
X2650Y2150
X1650Y6150
X1650Y7150
X1650Y8150
X1650Y9150
X3650Y10900
X3650Y11900
X4650Y11900
X4650Y10900
X5650Y10900
X5650Y11900
X7650Y9150
X7650Y8150
X7650Y7150
X7650Y6150
T04
X6989Y1150
X4311Y1150
T05
X1400Y11900
X7900Y11900
M30
