G75*
G70*
%OFA0B0*%
%FSLAX24Y24*%
%IPPOS*%
%LPD*%
%AMOC8*
5,1,8,0,0,1.08239X$1,22.5*
%
%ADD10C,0.0040*%
D10*
X005136Y005975D02*
X005043Y006068D01*
X005043Y006255D01*
X005230Y006255D02*
X005230Y006068D01*
X005136Y005975D01*
X005337Y006022D02*
X005337Y006115D01*
X005384Y006162D01*
X005431Y006162D01*
X005524Y006115D01*
X005524Y006255D01*
X005337Y006255D01*
X005632Y006115D02*
X005819Y006115D01*
X005726Y006022D02*
X005726Y006209D01*
X005524Y006022D02*
X005478Y005975D01*
X005384Y005975D01*
X005337Y006022D01*
X005431Y006975D02*
X005431Y007255D01*
X005524Y007255D02*
X005337Y007255D01*
X005230Y007162D02*
X005136Y007255D01*
X005043Y007162D01*
X005043Y006975D01*
X005043Y007115D02*
X005230Y007115D01*
X005230Y007162D02*
X005230Y006975D01*
X005632Y006975D02*
X005632Y007162D01*
X005726Y007255D01*
X005819Y007162D01*
X005819Y006975D01*
X005927Y007022D02*
X005927Y007209D01*
X005973Y007255D01*
X006114Y007255D01*
X006114Y006975D01*
X005973Y006975D01*
X005927Y007022D01*
X005819Y007115D02*
X005632Y007115D01*
X006168Y007975D02*
X006308Y008115D01*
X006355Y008068D02*
X006168Y008255D01*
X006355Y008255D02*
X006355Y007975D01*
X006462Y007975D02*
X006649Y007975D01*
X006649Y008255D01*
X006757Y008209D02*
X006804Y008255D01*
X006897Y008255D01*
X006944Y008209D01*
X006944Y008022D01*
X006897Y007975D01*
X006804Y007975D01*
X006757Y008022D01*
X006408Y008975D02*
X006221Y008975D01*
X006114Y008975D02*
X006114Y009162D01*
X006020Y009255D01*
X005927Y009162D01*
X005927Y008975D01*
X005927Y009115D02*
X006114Y009115D01*
X006408Y009255D02*
X006408Y008975D01*
X005819Y009255D02*
X005632Y009255D01*
X005726Y009255D02*
X005726Y008975D01*
X005524Y009022D02*
X005478Y008975D01*
X005384Y008975D01*
X005337Y009022D01*
X005230Y008975D02*
X005230Y009255D01*
X005337Y009209D02*
X005384Y009255D01*
X005478Y009255D01*
X005524Y009209D01*
X005524Y009022D01*
X005230Y009115D02*
X005043Y009115D01*
X005043Y009255D02*
X005043Y008975D01*
X005090Y009975D02*
X005043Y010022D01*
X005043Y010209D01*
X005090Y010255D01*
X005230Y010255D01*
X005230Y009975D01*
X005090Y009975D01*
X005337Y009975D02*
X005337Y010255D01*
X005524Y010255D02*
X005337Y009975D01*
X005524Y009975D02*
X005524Y010255D01*
X005632Y010209D02*
X005679Y010255D01*
X005772Y010255D01*
X005819Y010209D01*
X005819Y010022D01*
X005772Y009975D01*
X005679Y009975D01*
X005632Y010022D01*
X005632Y010115D01*
X005726Y010115D01*
X023686Y007255D02*
X023872Y007255D01*
X023779Y007255D02*
X023779Y006975D01*
X023980Y007022D02*
X023980Y007255D01*
X024167Y007255D02*
X024167Y007022D01*
X024120Y006975D01*
X024027Y006975D01*
X023980Y007022D01*
X024275Y007022D02*
X024275Y007209D01*
X024322Y007255D01*
X024415Y007255D01*
X024462Y007209D01*
X024462Y007022D01*
X024415Y006975D01*
X024322Y006975D01*
X024275Y007022D01*
X024864Y006975D02*
X024864Y007162D01*
X024958Y007255D01*
X025051Y007162D01*
X025051Y006975D01*
X025051Y007115D02*
X024864Y007115D01*
X025159Y007255D02*
X025346Y007255D01*
X025252Y007255D02*
X025252Y006975D01*
X025454Y006975D02*
X025454Y007162D01*
X025547Y007255D01*
X025640Y007162D01*
X025640Y006975D01*
X025748Y007022D02*
X025748Y007209D01*
X025795Y007255D01*
X025935Y007255D01*
X025935Y006975D01*
X025795Y006975D01*
X025748Y007022D01*
X025640Y007115D02*
X025454Y007115D01*
X025454Y007975D02*
X025640Y007975D01*
X025640Y008255D01*
X025748Y008209D02*
X025795Y008255D01*
X025888Y008255D01*
X025935Y008209D01*
X025935Y008022D01*
X025888Y007975D01*
X025795Y007975D01*
X025748Y008022D01*
X025346Y008068D02*
X025159Y008255D01*
X025346Y008255D02*
X025346Y007975D01*
X025299Y008115D02*
X025159Y007975D01*
X025252Y008975D02*
X025252Y009255D01*
X025159Y009255D02*
X025346Y009255D01*
X025454Y009162D02*
X025454Y008975D01*
X025454Y009115D02*
X025640Y009115D01*
X025640Y009162D02*
X025547Y009255D01*
X025454Y009162D01*
X025640Y009162D02*
X025640Y008975D01*
X025748Y008975D02*
X025935Y008975D01*
X025935Y009255D01*
X025051Y009209D02*
X025051Y009022D01*
X025004Y008975D01*
X024911Y008975D01*
X024864Y009022D01*
X024756Y008975D02*
X024756Y009255D01*
X024864Y009209D02*
X024911Y009255D01*
X025004Y009255D01*
X025051Y009209D01*
X024756Y009115D02*
X024570Y009115D01*
X024570Y009255D02*
X024570Y008975D01*
X025206Y009975D02*
X025159Y010022D01*
X025159Y010209D01*
X025206Y010255D01*
X025346Y010255D01*
X025346Y009975D01*
X025206Y009975D01*
X025454Y009975D02*
X025454Y010255D01*
X025640Y010255D02*
X025454Y009975D01*
X025640Y009975D02*
X025640Y010255D01*
X025748Y010209D02*
X025795Y010255D01*
X025888Y010255D01*
X025935Y010209D01*
X025935Y010022D01*
X025888Y009975D01*
X025795Y009975D01*
X025748Y010022D01*
X025748Y010115D01*
X025842Y010115D01*
X025640Y006255D02*
X025640Y006115D01*
X025547Y006162D01*
X025500Y006162D01*
X025454Y006115D01*
X025454Y006022D01*
X025500Y005975D01*
X025594Y005975D01*
X025640Y006022D01*
X025748Y006115D02*
X025935Y006115D01*
X025842Y006022D02*
X025842Y006209D01*
X025640Y006255D02*
X025454Y006255D01*
X025346Y006255D02*
X025346Y006068D01*
X025252Y005975D01*
X025159Y006068D01*
X025159Y006255D01*
M02*
