G75*
G70*
%OFA0B0*%
%FSLAX24Y24*%
%IPPOS*%
%LPD*%
%AMOC8*
5,1,8,0,0,1.08239X$1,22.5*
%
%ADD10C,0.0000*%
%ADD11C,0.0040*%
D10*
X002830Y003080D02*
X025830Y003080D01*
X025874Y003082D01*
X025917Y003088D01*
X025959Y003097D01*
X026001Y003110D01*
X026041Y003127D01*
X026080Y003147D01*
X026117Y003170D01*
X026151Y003197D01*
X026184Y003226D01*
X026213Y003259D01*
X026240Y003293D01*
X026263Y003330D01*
X026283Y003369D01*
X026300Y003409D01*
X026313Y003451D01*
X026322Y003493D01*
X026328Y003536D01*
X026330Y003580D01*
X026330Y010080D01*
X026328Y010124D01*
X026322Y010167D01*
X026313Y010209D01*
X026300Y010251D01*
X026283Y010291D01*
X026263Y010330D01*
X026240Y010367D01*
X026213Y010401D01*
X026184Y010434D01*
X026151Y010463D01*
X026117Y010490D01*
X026080Y010513D01*
X026041Y010533D01*
X026001Y010550D01*
X025959Y010563D01*
X025917Y010572D01*
X025874Y010578D01*
X025830Y010580D01*
X002830Y010580D01*
X002786Y010578D01*
X002743Y010572D01*
X002701Y010563D01*
X002659Y010550D01*
X002619Y010533D01*
X002580Y010513D01*
X002543Y010490D01*
X002509Y010463D01*
X002476Y010434D01*
X002447Y010401D01*
X002420Y010367D01*
X002397Y010330D01*
X002377Y010291D01*
X002360Y010251D01*
X002347Y010209D01*
X002338Y010167D01*
X002332Y010124D01*
X002330Y010080D01*
X002330Y003580D01*
X002332Y003536D01*
X002338Y003493D01*
X002347Y003451D01*
X002360Y003409D01*
X002377Y003369D01*
X002397Y003330D01*
X002420Y003293D01*
X002447Y003259D01*
X002476Y003226D01*
X002509Y003197D01*
X002543Y003170D01*
X002580Y003147D01*
X002619Y003127D01*
X002659Y003110D01*
X002701Y003097D01*
X002743Y003088D01*
X002786Y003082D01*
X002830Y003080D01*
D11*
X005136Y005975D02*
X005043Y006068D01*
X005043Y006255D01*
X005230Y006255D02*
X005230Y006068D01*
X005136Y005975D01*
X005337Y006022D02*
X005337Y006115D01*
X005384Y006162D01*
X005431Y006162D01*
X005524Y006115D01*
X005524Y006255D01*
X005337Y006255D01*
X005632Y006115D02*
X005819Y006115D01*
X005726Y006022D02*
X005726Y006209D01*
X005524Y006022D02*
X005478Y005975D01*
X005384Y005975D01*
X005337Y006022D01*
X005431Y006975D02*
X005431Y007255D01*
X005524Y007255D02*
X005337Y007255D01*
X005230Y007162D02*
X005136Y007255D01*
X005043Y007162D01*
X005043Y006975D01*
X005043Y007115D02*
X005230Y007115D01*
X005230Y007162D02*
X005230Y006975D01*
X005632Y006975D02*
X005632Y007162D01*
X005726Y007255D01*
X005819Y007162D01*
X005819Y006975D01*
X005927Y007022D02*
X005927Y007209D01*
X005973Y007255D01*
X006114Y007255D01*
X006114Y006975D01*
X005973Y006975D01*
X005927Y007022D01*
X005819Y007115D02*
X005632Y007115D01*
X006168Y007975D02*
X006308Y008115D01*
X006355Y008068D02*
X006168Y008255D01*
X006355Y008255D02*
X006355Y007975D01*
X006462Y007975D02*
X006649Y007975D01*
X006649Y008255D01*
X006757Y008209D02*
X006804Y008255D01*
X006897Y008255D01*
X006944Y008209D01*
X006944Y008022D01*
X006897Y007975D01*
X006804Y007975D01*
X006757Y008022D01*
X006408Y008975D02*
X006221Y008975D01*
X006114Y008975D02*
X006114Y009162D01*
X006020Y009255D01*
X005927Y009162D01*
X005927Y008975D01*
X005927Y009115D02*
X006114Y009115D01*
X006408Y009255D02*
X006408Y008975D01*
X005819Y009255D02*
X005632Y009255D01*
X005726Y009255D02*
X005726Y008975D01*
X005524Y009022D02*
X005478Y008975D01*
X005384Y008975D01*
X005337Y009022D01*
X005230Y008975D02*
X005230Y009255D01*
X005337Y009209D02*
X005384Y009255D01*
X005478Y009255D01*
X005524Y009209D01*
X005524Y009022D01*
X005230Y009115D02*
X005043Y009115D01*
X005043Y009255D02*
X005043Y008975D01*
X005090Y009975D02*
X005043Y010022D01*
X005043Y010209D01*
X005090Y010255D01*
X005230Y010255D01*
X005230Y009975D01*
X005090Y009975D01*
X005337Y009975D02*
X005337Y010255D01*
X005524Y010255D02*
X005337Y009975D01*
X005524Y009975D02*
X005524Y010255D01*
X005632Y010209D02*
X005679Y010255D01*
X005772Y010255D01*
X005819Y010209D01*
X005819Y010022D01*
X005772Y009975D01*
X005679Y009975D01*
X005632Y010022D01*
X005632Y010115D01*
X005726Y010115D01*
X023686Y007255D02*
X023872Y007255D01*
X023779Y007255D02*
X023779Y006975D01*
X023980Y007022D02*
X023980Y007255D01*
X024167Y007255D02*
X024167Y007022D01*
X024120Y006975D01*
X024027Y006975D01*
X023980Y007022D01*
X024275Y007022D02*
X024275Y007209D01*
X024322Y007255D01*
X024415Y007255D01*
X024462Y007209D01*
X024462Y007022D01*
X024415Y006975D01*
X024322Y006975D01*
X024275Y007022D01*
X024864Y006975D02*
X024864Y007162D01*
X024958Y007255D01*
X025051Y007162D01*
X025051Y006975D01*
X025051Y007115D02*
X024864Y007115D01*
X025159Y007255D02*
X025346Y007255D01*
X025252Y007255D02*
X025252Y006975D01*
X025454Y006975D02*
X025454Y007162D01*
X025547Y007255D01*
X025640Y007162D01*
X025640Y006975D01*
X025748Y007022D02*
X025748Y007209D01*
X025795Y007255D01*
X025935Y007255D01*
X025935Y006975D01*
X025795Y006975D01*
X025748Y007022D01*
X025640Y007115D02*
X025454Y007115D01*
X025454Y006255D02*
X025640Y006255D01*
X025640Y006115D01*
X025547Y006162D01*
X025500Y006162D01*
X025454Y006115D01*
X025454Y006022D01*
X025500Y005975D01*
X025594Y005975D01*
X025640Y006022D01*
X025748Y006115D02*
X025935Y006115D01*
X025842Y006022D02*
X025842Y006209D01*
X025346Y006255D02*
X025346Y006068D01*
X025252Y005975D01*
X025159Y006068D01*
X025159Y006255D01*
X025159Y007975D02*
X025299Y008115D01*
X025346Y008068D02*
X025159Y008255D01*
X025346Y008255D02*
X025346Y007975D01*
X025454Y007975D02*
X025640Y007975D01*
X025640Y008255D01*
X025748Y008209D02*
X025795Y008255D01*
X025888Y008255D01*
X025935Y008209D01*
X025935Y008022D01*
X025888Y007975D01*
X025795Y007975D01*
X025748Y008022D01*
X025748Y008975D02*
X025935Y008975D01*
X025935Y009255D01*
X025640Y009162D02*
X025547Y009255D01*
X025454Y009162D01*
X025454Y008975D01*
X025454Y009115D02*
X025640Y009115D01*
X025640Y009162D02*
X025640Y008975D01*
X025252Y008975D02*
X025252Y009255D01*
X025159Y009255D02*
X025346Y009255D01*
X025051Y009209D02*
X025051Y009022D01*
X025004Y008975D01*
X024911Y008975D01*
X024864Y009022D01*
X024756Y008975D02*
X024756Y009255D01*
X024864Y009209D02*
X024911Y009255D01*
X025004Y009255D01*
X025051Y009209D01*
X024756Y009115D02*
X024570Y009115D01*
X024570Y009255D02*
X024570Y008975D01*
X025206Y009975D02*
X025159Y010022D01*
X025159Y010209D01*
X025206Y010255D01*
X025346Y010255D01*
X025346Y009975D01*
X025206Y009975D01*
X025454Y009975D02*
X025454Y010255D01*
X025640Y010255D02*
X025454Y009975D01*
X025640Y009975D02*
X025640Y010255D01*
X025748Y010209D02*
X025795Y010255D01*
X025888Y010255D01*
X025935Y010209D01*
X025935Y010022D01*
X025888Y009975D01*
X025795Y009975D01*
X025748Y010022D01*
X025748Y010115D01*
X025842Y010115D01*
M02*
