G75*
G70*
%OFA0B0*%
%FSLAX24Y24*%
%IPPOS*%
%LPD*%
%AMOC8*
5,1,8,0,0,1.08239X$1,22.5*
%
%ADD10C,0.0660*%
%ADD11C,0.0540*%
%ADD12OC8,0.0436*%
D10*
X002830Y003780D02*
X002830Y004380D01*
X003830Y004380D02*
X003830Y003780D01*
X004830Y003780D02*
X004830Y004380D01*
X005830Y004380D02*
X005830Y003780D01*
X006830Y003780D02*
X006830Y004380D01*
X007830Y004380D02*
X007830Y003780D01*
X008830Y003780D02*
X008830Y004380D01*
X009830Y004380D02*
X009830Y003780D01*
X010830Y003780D02*
X010830Y004380D01*
X011830Y004380D02*
X011830Y003780D01*
X012830Y003780D02*
X012830Y004380D01*
X013830Y004380D02*
X013830Y003780D01*
X014830Y003780D02*
X014830Y004380D01*
X015830Y004380D02*
X015830Y003780D01*
X016830Y003780D02*
X016830Y004380D01*
X017830Y004380D02*
X017830Y003780D01*
X018830Y003780D02*
X018830Y004380D01*
X019830Y004380D02*
X019830Y003780D01*
X020830Y003780D02*
X020830Y004380D01*
X021830Y004380D02*
X021830Y003780D01*
X022830Y003780D02*
X022830Y004380D01*
X023830Y004380D02*
X023830Y003780D01*
X024830Y003780D02*
X024830Y004380D01*
X025830Y004380D02*
X025830Y003780D01*
X004380Y006080D02*
X003780Y006080D01*
X003780Y007080D02*
X004380Y007080D01*
X004380Y008080D02*
X003780Y008080D01*
X003780Y009080D02*
X004380Y009080D01*
X004380Y010080D02*
X003780Y010080D01*
D11*
X022590Y010080D02*
X023070Y010080D01*
X023070Y009080D02*
X022590Y009080D01*
X022590Y008080D02*
X023070Y008080D01*
X023070Y007080D02*
X022590Y007080D01*
X022590Y006080D02*
X023070Y006080D01*
D12*
X019330Y007080D03*
X018580Y007830D03*
X019080Y008330D03*
X018580Y008830D03*
X017205Y008580D03*
X015830Y007830D03*
X014830Y007080D03*
X013330Y007705D03*
X013830Y008080D03*
X012330Y007705D03*
X011330Y008080D03*
X009330Y007830D03*
X008830Y008080D03*
X007830Y007330D03*
X006830Y007330D03*
X005830Y008080D03*
X007830Y009580D03*
X008330Y009580D03*
X008080Y010080D03*
X009830Y009080D03*
X013580Y010080D03*
X013830Y009580D03*
X015330Y008830D03*
X018580Y006080D03*
X010330Y006080D03*
M02*
