%
M48
M72
T01C0.0236
T02C0.0320
T03C0.0400
%
T01
X10330Y6080
X7830Y7330
X6830Y7330
X5830Y8080
X8830Y8080
X9330Y7830
X11330Y8080
X12330Y7705
X13330Y7705
X13830Y8080
X15330Y8830
X13830Y9580
X13580Y10080
X17205Y8580
X18580Y8830
X19080Y8330
X18580Y7830
X19330Y7080
X18580Y6080
X15830Y7830
X14830Y7080
X9830Y9080
X8330Y9580
X7830Y9580
X8080Y10080
T02
X22830Y10080
X22830Y9080
X22830Y8080
X22830Y7080
X22830Y6080
T03
X2830Y4080
X3830Y4080
X4830Y4080
X5830Y4080
X6830Y4080
X7830Y4080
X8830Y4080
X9830Y4080
X10830Y4080
X11830Y4080
X12830Y4080
X13830Y4080
X14830Y4080
X15830Y4080
X16830Y4080
X17830Y4080
X18830Y4080
X19830Y4080
X20830Y4080
X21830Y4080
X22830Y4080
X23830Y4080
X24830Y4080
X25830Y4080
X4080Y6080
X4080Y7080
X4080Y8080
X4080Y9080
X4080Y10080
M30
