G75*
G70*
%OFA0B0*%
%FSLAX24Y24*%
%IPPOS*%
%LPD*%
%AMOC8*
5,1,8,0,0,1.08239X$1,22.5*
%
%ADD10C,0.0030*%
%ADD11C,0.0100*%
%ADD12C,0.0050*%
%ADD13C,0.0000*%
%ADD14C,0.0060*%
D10*
X003265Y000765D02*
X003265Y000958D01*
X003362Y001055D01*
X003458Y000958D01*
X003458Y000765D01*
X003560Y000813D02*
X003560Y000862D01*
X003608Y000910D01*
X003705Y000910D01*
X003753Y000862D01*
X003753Y000813D01*
X003705Y000765D01*
X003608Y000765D01*
X003560Y000813D01*
X003608Y000910D02*
X003560Y000958D01*
X003560Y001007D01*
X003608Y001055D01*
X003705Y001055D01*
X003753Y001007D01*
X003753Y000958D01*
X003705Y000910D01*
X003458Y000910D02*
X003265Y000910D01*
X004265Y000910D02*
X004458Y000910D01*
X004458Y000958D02*
X004458Y000765D01*
X004560Y000813D02*
X004608Y000765D01*
X004705Y000765D01*
X004753Y000813D01*
X004753Y001007D01*
X004705Y001055D01*
X004608Y001055D01*
X004560Y001007D01*
X004560Y000958D01*
X004608Y000910D01*
X004753Y000910D01*
X004458Y000958D02*
X004362Y001055D01*
X004265Y000958D01*
X004265Y000765D01*
X005140Y000765D02*
X005140Y000958D01*
X005237Y001055D01*
X005333Y000958D01*
X005333Y000765D01*
X005435Y000765D02*
X005628Y000765D01*
X005531Y000765D02*
X005531Y001055D01*
X005435Y000958D01*
X005333Y000910D02*
X005140Y000910D01*
X005729Y000813D02*
X005923Y001007D01*
X005923Y000813D01*
X005874Y000765D01*
X005778Y000765D01*
X005729Y000813D01*
X005729Y001007D01*
X005778Y001055D01*
X005874Y001055D01*
X005923Y001007D01*
X006140Y000958D02*
X006140Y000765D01*
X006140Y000910D02*
X006333Y000910D01*
X006333Y000958D02*
X006333Y000765D01*
X006435Y000765D02*
X006628Y000765D01*
X006531Y000765D02*
X006531Y001055D01*
X006435Y000958D01*
X006333Y000958D02*
X006237Y001055D01*
X006140Y000958D01*
X006729Y000958D02*
X006826Y001055D01*
X006826Y000765D01*
X006729Y000765D02*
X006923Y000765D01*
X007140Y000765D02*
X007140Y000958D01*
X007237Y001055D01*
X007333Y000958D01*
X007333Y000765D01*
X007435Y000765D02*
X007628Y000765D01*
X007531Y000765D02*
X007531Y001055D01*
X007435Y000958D01*
X007333Y000910D02*
X007140Y000910D01*
X007729Y001007D02*
X007778Y001055D01*
X007874Y001055D01*
X007923Y001007D01*
X007923Y000958D01*
X007729Y000765D01*
X007923Y000765D01*
X008140Y000765D02*
X008140Y000958D01*
X008237Y001055D01*
X008333Y000958D01*
X008333Y000765D01*
X008435Y000765D02*
X008628Y000765D01*
X008531Y000765D02*
X008531Y001055D01*
X008435Y000958D01*
X008333Y000910D02*
X008140Y000910D01*
X008729Y000813D02*
X008778Y000765D01*
X008874Y000765D01*
X008923Y000813D01*
X008923Y000862D01*
X008874Y000910D01*
X008826Y000910D01*
X008874Y000910D02*
X008923Y000958D01*
X008923Y001007D01*
X008874Y001055D01*
X008778Y001055D01*
X008729Y001007D01*
X009140Y000958D02*
X009140Y000765D01*
X009140Y000910D02*
X009333Y000910D01*
X009333Y000958D02*
X009333Y000765D01*
X009435Y000765D02*
X009628Y000765D01*
X009531Y000765D02*
X009531Y001055D01*
X009435Y000958D01*
X009333Y000958D02*
X009237Y001055D01*
X009140Y000958D01*
X009729Y000910D02*
X009923Y000910D01*
X009874Y000765D02*
X009874Y001055D01*
X009729Y000910D01*
X010140Y000910D02*
X010333Y000910D01*
X010333Y000958D02*
X010333Y000765D01*
X010435Y000765D02*
X010628Y000765D01*
X010531Y000765D02*
X010531Y001055D01*
X010435Y000958D01*
X010333Y000958D02*
X010237Y001055D01*
X010140Y000958D01*
X010140Y000765D01*
X010729Y000813D02*
X010778Y000765D01*
X010874Y000765D01*
X010923Y000813D01*
X010923Y000910D01*
X010874Y000958D01*
X010826Y000958D01*
X010729Y000910D01*
X010729Y001055D01*
X010923Y001055D01*
X011688Y002765D02*
X011785Y002765D01*
X011833Y002813D01*
X011833Y002910D01*
X011737Y002910D01*
X011833Y003007D02*
X011785Y003055D01*
X011688Y003055D01*
X011640Y003007D01*
X011640Y002813D01*
X011688Y002765D01*
X011935Y002765D02*
X011935Y003055D01*
X012128Y002765D01*
X012128Y003055D01*
X012229Y003055D02*
X012374Y003055D01*
X012423Y003007D01*
X012423Y002813D01*
X012374Y002765D01*
X012229Y002765D01*
X012229Y003055D01*
X010378Y003890D02*
X010185Y003890D01*
X010378Y004083D01*
X010378Y004132D01*
X010330Y004180D01*
X010233Y004180D01*
X010185Y004132D01*
X010083Y004180D02*
X009890Y004180D01*
X009890Y004035D01*
X009987Y004083D01*
X010035Y004083D01*
X010083Y004035D01*
X010083Y003938D01*
X010035Y003890D01*
X009938Y003890D01*
X009890Y003938D01*
X009833Y003680D02*
X009640Y003680D01*
X009640Y003535D01*
X009737Y003583D01*
X009785Y003583D01*
X009833Y003535D01*
X009833Y003438D01*
X009785Y003390D01*
X009688Y003390D01*
X009640Y003438D01*
X009935Y003438D02*
X009983Y003390D01*
X010080Y003390D01*
X010128Y003438D01*
X010128Y003487D01*
X010080Y003535D01*
X010031Y003535D01*
X010080Y003535D02*
X010128Y003583D01*
X010128Y003632D01*
X010080Y003680D01*
X009983Y003680D01*
X009935Y003632D01*
X009935Y004390D02*
X010128Y004390D01*
X010031Y004390D02*
X010031Y004680D01*
X009935Y004583D01*
X009833Y004535D02*
X009833Y004438D01*
X009785Y004390D01*
X009688Y004390D01*
X009640Y004438D01*
X009640Y004535D02*
X009737Y004583D01*
X009785Y004583D01*
X009833Y004535D01*
X009833Y004680D02*
X009640Y004680D01*
X009640Y004535D01*
X009938Y004890D02*
X009890Y004938D01*
X009938Y004890D02*
X010035Y004890D01*
X010083Y004938D01*
X010083Y005035D01*
X010035Y005083D01*
X009987Y005083D01*
X009890Y005035D01*
X009890Y005180D01*
X010083Y005180D01*
X010185Y005132D02*
X010185Y004938D01*
X010378Y005132D01*
X010378Y004938D01*
X010330Y004890D01*
X010233Y004890D01*
X010185Y004938D01*
X010185Y005132D02*
X010233Y005180D01*
X010330Y005180D01*
X010378Y005132D01*
X010080Y005390D02*
X010128Y005438D01*
X010128Y005632D01*
X010080Y005680D01*
X009983Y005680D01*
X009935Y005632D01*
X009935Y005583D01*
X009983Y005535D01*
X010128Y005535D01*
X010080Y005390D02*
X009983Y005390D01*
X009935Y005438D01*
X009833Y005535D02*
X009640Y005535D01*
X009785Y005680D01*
X009785Y005390D01*
X010035Y005890D02*
X010035Y006180D01*
X009890Y006035D01*
X010083Y006035D01*
X010185Y005987D02*
X010233Y006035D01*
X010330Y006035D01*
X010378Y005987D01*
X010378Y005938D01*
X010330Y005890D01*
X010233Y005890D01*
X010185Y005938D01*
X010185Y005987D01*
X010233Y006035D02*
X010185Y006083D01*
X010185Y006132D01*
X010233Y006180D01*
X010330Y006180D01*
X010378Y006132D01*
X010378Y006083D01*
X010330Y006035D01*
X009935Y006390D02*
X009935Y006438D01*
X010128Y006632D01*
X010128Y006680D01*
X009935Y006680D01*
X009785Y006680D02*
X009785Y006390D01*
X009833Y006535D02*
X009640Y006535D01*
X009785Y006680D01*
X010035Y006890D02*
X010035Y007180D01*
X009890Y007035D01*
X010083Y007035D01*
X010185Y007035D02*
X010330Y007035D01*
X010378Y006987D01*
X010378Y006938D01*
X010330Y006890D01*
X010233Y006890D01*
X010185Y006938D01*
X010185Y007035D01*
X010281Y007132D01*
X010378Y007180D01*
X010128Y007438D02*
X010080Y007390D01*
X009983Y007390D01*
X009935Y007438D01*
X009935Y007535D02*
X010031Y007583D01*
X010080Y007583D01*
X010128Y007535D01*
X010128Y007438D01*
X010128Y007680D02*
X009935Y007680D01*
X009935Y007535D01*
X009833Y007535D02*
X009640Y007535D01*
X009785Y007680D01*
X009785Y007390D01*
X010035Y007890D02*
X010035Y008180D01*
X009890Y008035D01*
X010083Y008035D01*
X010185Y008035D02*
X010378Y008035D01*
X010330Y007890D02*
X010330Y008180D01*
X010185Y008035D01*
X010080Y008390D02*
X009983Y008390D01*
X009935Y008438D01*
X010031Y008535D02*
X010080Y008535D01*
X010128Y008487D01*
X010128Y008438D01*
X010080Y008390D01*
X010080Y008535D02*
X010128Y008583D01*
X010128Y008632D01*
X010080Y008680D01*
X009983Y008680D01*
X009935Y008632D01*
X009833Y008535D02*
X009640Y008535D01*
X009785Y008680D01*
X009785Y008390D01*
X010035Y008890D02*
X010035Y009180D01*
X009890Y009035D01*
X010083Y009035D01*
X010185Y009132D02*
X010233Y009180D01*
X010330Y009180D01*
X010378Y009132D01*
X010378Y009083D01*
X010185Y008890D01*
X010378Y008890D01*
X010128Y009390D02*
X009935Y009390D01*
X010031Y009390D02*
X010031Y009680D01*
X009935Y009583D01*
X009833Y009535D02*
X009640Y009535D01*
X009785Y009680D01*
X009785Y009390D01*
X010035Y009890D02*
X010035Y010180D01*
X009890Y010035D01*
X010083Y010035D01*
X010185Y009938D02*
X010378Y010132D01*
X010378Y009938D01*
X010330Y009890D01*
X010233Y009890D01*
X010185Y009938D01*
X010185Y010132D01*
X010233Y010180D01*
X010330Y010180D01*
X010378Y010132D01*
X010080Y010390D02*
X010128Y010438D01*
X010128Y010632D01*
X010080Y010680D01*
X009983Y010680D01*
X009935Y010632D01*
X009935Y010583D01*
X009983Y010535D01*
X010128Y010535D01*
X010080Y010390D02*
X009983Y010390D01*
X009935Y010438D01*
X009833Y010438D02*
X009785Y010390D01*
X009688Y010390D01*
X009640Y010438D01*
X009737Y010535D02*
X009785Y010535D01*
X009833Y010487D01*
X009833Y010438D01*
X009785Y010535D02*
X009833Y010583D01*
X009833Y010632D01*
X009785Y010680D01*
X009688Y010680D01*
X009640Y010632D01*
X009938Y010890D02*
X009890Y010938D01*
X009938Y010890D02*
X010035Y010890D01*
X010083Y010938D01*
X010083Y010987D01*
X010035Y011035D01*
X009987Y011035D01*
X010035Y011035D02*
X010083Y011083D01*
X010083Y011132D01*
X010035Y011180D01*
X009938Y011180D01*
X009890Y011132D01*
X009935Y011390D02*
X009935Y011438D01*
X010128Y011632D01*
X010128Y011680D01*
X009935Y011680D01*
X009833Y011632D02*
X009833Y011583D01*
X009785Y011535D01*
X009833Y011487D01*
X009833Y011438D01*
X009785Y011390D01*
X009688Y011390D01*
X009640Y011438D01*
X009737Y011535D02*
X009785Y011535D01*
X009833Y011632D02*
X009785Y011680D01*
X009688Y011680D01*
X009640Y011632D01*
X009938Y011890D02*
X009890Y011938D01*
X009938Y011890D02*
X010035Y011890D01*
X010083Y011938D01*
X010083Y011987D01*
X010035Y012035D01*
X009987Y012035D01*
X010035Y012035D02*
X010083Y012083D01*
X010083Y012132D01*
X010035Y012180D01*
X009938Y012180D01*
X009890Y012132D01*
X009983Y012390D02*
X009935Y012438D01*
X009983Y012390D02*
X010080Y012390D01*
X010128Y012438D01*
X010128Y012535D01*
X010080Y012583D01*
X010031Y012583D01*
X009935Y012535D01*
X009935Y012680D01*
X010128Y012680D01*
X010035Y012890D02*
X009938Y012890D01*
X009890Y012938D01*
X009987Y013035D02*
X010035Y013035D01*
X010083Y012987D01*
X010083Y012938D01*
X010035Y012890D01*
X010035Y013035D02*
X010083Y013083D01*
X010083Y013132D01*
X010035Y013180D01*
X009938Y013180D01*
X009890Y013132D01*
X009983Y013390D02*
X009935Y013438D01*
X009983Y013390D02*
X010080Y013390D01*
X010128Y013438D01*
X010128Y013487D01*
X010080Y013535D01*
X010031Y013535D01*
X010080Y013535D02*
X010128Y013583D01*
X010128Y013632D01*
X010080Y013680D01*
X009983Y013680D01*
X009935Y013632D01*
X009833Y013632D02*
X009833Y013583D01*
X009785Y013535D01*
X009833Y013487D01*
X009833Y013438D01*
X009785Y013390D01*
X009688Y013390D01*
X009640Y013438D01*
X009737Y013535D02*
X009785Y013535D01*
X009833Y013632D02*
X009785Y013680D01*
X009688Y013680D01*
X009640Y013632D01*
X009938Y013890D02*
X009890Y013938D01*
X009938Y013890D02*
X010035Y013890D01*
X010083Y013938D01*
X010083Y013987D01*
X010035Y014035D01*
X009987Y014035D01*
X010035Y014035D02*
X010083Y014083D01*
X010083Y014132D01*
X010035Y014180D01*
X009938Y014180D01*
X009890Y014132D01*
X009935Y014390D02*
X010128Y014390D01*
X010031Y014390D02*
X010031Y014680D01*
X009935Y014583D01*
X009833Y014583D02*
X009785Y014535D01*
X009833Y014487D01*
X009833Y014438D01*
X009785Y014390D01*
X009688Y014390D01*
X009640Y014438D01*
X009737Y014535D02*
X009785Y014535D01*
X009833Y014583D02*
X009833Y014632D01*
X009785Y014680D01*
X009688Y014680D01*
X009640Y014632D01*
X009938Y014890D02*
X009890Y014938D01*
X009938Y014890D02*
X010035Y014890D01*
X010083Y014938D01*
X010083Y014987D01*
X010035Y015035D01*
X009987Y015035D01*
X010035Y015035D02*
X010083Y015083D01*
X010083Y015132D01*
X010035Y015180D01*
X009938Y015180D01*
X009890Y015132D01*
X009833Y015390D02*
X009640Y015390D01*
X009833Y015583D01*
X009833Y015632D01*
X009785Y015680D01*
X009688Y015680D01*
X009640Y015632D01*
X009935Y015632D02*
X009935Y015583D01*
X009983Y015535D01*
X010128Y015535D01*
X010128Y015438D02*
X010128Y015632D01*
X010080Y015680D01*
X009983Y015680D01*
X009935Y015632D01*
X009935Y015438D02*
X009983Y015390D01*
X010080Y015390D01*
X010128Y015438D01*
X010233Y015180D02*
X010330Y015180D01*
X010378Y015132D01*
X010185Y014938D01*
X010233Y014890D01*
X010330Y014890D01*
X010378Y014938D01*
X010378Y015132D01*
X010233Y015180D02*
X010185Y015132D01*
X010185Y014938D01*
X010233Y014180D02*
X010185Y014132D01*
X010233Y014180D02*
X010330Y014180D01*
X010378Y014132D01*
X010378Y014083D01*
X010185Y013890D01*
X010378Y013890D01*
X010330Y013180D02*
X010185Y013035D01*
X010378Y013035D01*
X010330Y012890D02*
X010330Y013180D01*
X009785Y012680D02*
X009833Y012632D01*
X009833Y012583D01*
X009785Y012535D01*
X009833Y012487D01*
X009833Y012438D01*
X009785Y012390D01*
X009688Y012390D01*
X009640Y012438D01*
X009737Y012535D02*
X009785Y012535D01*
X009785Y012680D02*
X009688Y012680D01*
X009640Y012632D01*
X010185Y012035D02*
X010330Y012035D01*
X010378Y011987D01*
X010378Y011938D01*
X010330Y011890D01*
X010233Y011890D01*
X010185Y011938D01*
X010185Y012035D01*
X010281Y012132D01*
X010378Y012180D01*
X010330Y011180D02*
X010233Y011180D01*
X010185Y011132D01*
X010185Y011083D01*
X010233Y011035D01*
X010330Y011035D01*
X010378Y010987D01*
X010378Y010938D01*
X010330Y010890D01*
X010233Y010890D01*
X010185Y010938D01*
X010185Y010987D01*
X010233Y011035D01*
X010330Y011035D02*
X010378Y011083D01*
X010378Y011132D01*
X010330Y011180D01*
X010330Y015890D02*
X010233Y015890D01*
X010185Y015938D01*
X010185Y015987D01*
X010233Y016035D01*
X010330Y016035D01*
X010378Y015987D01*
X010378Y015938D01*
X010330Y015890D01*
X010330Y016035D02*
X010378Y016083D01*
X010378Y016132D01*
X010330Y016180D01*
X010233Y016180D01*
X010185Y016132D01*
X010185Y016083D01*
X010233Y016035D01*
X010083Y016083D02*
X010083Y016132D01*
X010035Y016180D01*
X009938Y016180D01*
X009890Y016132D01*
X010083Y016083D02*
X009890Y015890D01*
X010083Y015890D01*
X009935Y016390D02*
X009935Y016438D01*
X010128Y016632D01*
X010128Y016680D01*
X009935Y016680D01*
X009833Y016632D02*
X009785Y016680D01*
X009688Y016680D01*
X009640Y016632D01*
X009833Y016583D02*
X009640Y016390D01*
X009833Y016390D01*
X009833Y016583D02*
X009833Y016632D01*
X009890Y016890D02*
X010083Y017083D01*
X010083Y017132D01*
X010035Y017180D01*
X009938Y017180D01*
X009890Y017132D01*
X009890Y016890D02*
X010083Y016890D01*
X010185Y016938D02*
X010233Y016890D01*
X010330Y016890D01*
X010378Y016938D01*
X010378Y016987D01*
X010330Y017035D01*
X010185Y017035D01*
X010185Y016938D01*
X010185Y017035D02*
X010281Y017132D01*
X010378Y017180D01*
X010128Y017438D02*
X010080Y017390D01*
X009983Y017390D01*
X009935Y017438D01*
X009935Y017535D02*
X010031Y017583D01*
X010080Y017583D01*
X010128Y017535D01*
X010128Y017438D01*
X010128Y017680D02*
X009935Y017680D01*
X009935Y017535D01*
X009833Y017583D02*
X009833Y017632D01*
X009785Y017680D01*
X009688Y017680D01*
X009640Y017632D01*
X009833Y017583D02*
X009640Y017390D01*
X009833Y017390D01*
X009890Y017890D02*
X010083Y018083D01*
X010083Y018132D01*
X010035Y018180D01*
X009938Y018180D01*
X009890Y018132D01*
X009890Y017890D02*
X010083Y017890D01*
X010185Y018035D02*
X010378Y018035D01*
X010330Y017890D02*
X010330Y018180D01*
X010185Y018035D01*
X010080Y018390D02*
X009983Y018390D01*
X009935Y018438D01*
X009833Y018390D02*
X009640Y018390D01*
X009833Y018583D01*
X009833Y018632D01*
X009785Y018680D01*
X009688Y018680D01*
X009640Y018632D01*
X009935Y018632D02*
X009983Y018680D01*
X010080Y018680D01*
X010128Y018632D01*
X010128Y018583D01*
X010080Y018535D01*
X010128Y018487D01*
X010128Y018438D01*
X010080Y018390D01*
X010080Y018535D02*
X010031Y018535D01*
X010083Y018890D02*
X009890Y018890D01*
X010083Y019083D01*
X010083Y019132D01*
X010035Y019180D01*
X009938Y019180D01*
X009890Y019132D01*
X010185Y019132D02*
X010233Y019180D01*
X010330Y019180D01*
X010378Y019132D01*
X010378Y019083D01*
X010185Y018890D01*
X010378Y018890D01*
X011612Y021063D02*
X011612Y021257D01*
X011708Y021160D02*
X011515Y021160D01*
X011810Y021160D02*
X011906Y021208D01*
X011955Y021208D01*
X012003Y021160D01*
X012003Y021063D01*
X011955Y021015D01*
X011858Y021015D01*
X011810Y021063D01*
X011810Y021160D02*
X011810Y021305D01*
X012003Y021305D01*
X012104Y021305D02*
X012104Y021112D01*
X012201Y021015D01*
X012298Y021112D01*
X012298Y021305D01*
X008753Y021015D02*
X008560Y021015D01*
X008656Y021015D02*
X008656Y021305D01*
X008560Y021208D01*
X008458Y021208D02*
X008458Y021257D01*
X008410Y021305D01*
X008313Y021305D01*
X008265Y021257D01*
X008458Y021208D02*
X008265Y021015D01*
X008458Y021015D01*
X007753Y021063D02*
X007705Y021015D01*
X007608Y021015D01*
X007560Y021063D01*
X007753Y021257D01*
X007753Y021063D01*
X007753Y021257D02*
X007705Y021305D01*
X007608Y021305D01*
X007560Y021257D01*
X007560Y021063D01*
X007458Y021015D02*
X007265Y021015D01*
X007458Y021208D01*
X007458Y021257D01*
X007410Y021305D01*
X007313Y021305D01*
X007265Y021257D01*
X006753Y021257D02*
X006753Y021063D01*
X006705Y021015D01*
X006608Y021015D01*
X006560Y021063D01*
X006608Y021160D02*
X006560Y021208D01*
X006560Y021257D01*
X006608Y021305D01*
X006705Y021305D01*
X006753Y021257D01*
X006753Y021160D02*
X006608Y021160D01*
X006458Y021015D02*
X006265Y021015D01*
X006362Y021015D02*
X006362Y021305D01*
X006265Y021208D01*
X005753Y021208D02*
X005705Y021160D01*
X005608Y021160D01*
X005560Y021208D01*
X005560Y021257D01*
X005608Y021305D01*
X005705Y021305D01*
X005753Y021257D01*
X005753Y021208D01*
X005705Y021160D02*
X005753Y021112D01*
X005753Y021063D01*
X005705Y021015D01*
X005608Y021015D01*
X005560Y021063D01*
X005560Y021112D01*
X005608Y021160D01*
X005458Y021015D02*
X005265Y021015D01*
X005362Y021015D02*
X005362Y021305D01*
X005265Y021208D01*
X004753Y021257D02*
X004560Y021063D01*
X004560Y021015D01*
X004458Y021015D02*
X004265Y021015D01*
X004362Y021015D02*
X004362Y021305D01*
X004265Y021208D01*
X004560Y021305D02*
X004753Y021305D01*
X004753Y021257D01*
X003753Y021305D02*
X003656Y021257D01*
X003560Y021160D01*
X003705Y021160D01*
X003753Y021112D01*
X003753Y021063D01*
X003705Y021015D01*
X003608Y021015D01*
X003560Y021063D01*
X003560Y021160D01*
X003458Y021015D02*
X003265Y021015D01*
X003362Y021015D02*
X003362Y021305D01*
X003265Y021208D01*
X002753Y021160D02*
X002753Y021063D01*
X002705Y021015D01*
X002608Y021015D01*
X002560Y021063D01*
X002560Y021160D02*
X002656Y021208D01*
X002705Y021208D01*
X002753Y021160D01*
X002753Y021305D02*
X002560Y021305D01*
X002560Y021160D01*
X002458Y021015D02*
X002265Y021015D01*
X002362Y021015D02*
X002362Y021305D01*
X002265Y021208D01*
X001753Y021160D02*
X001560Y021160D01*
X001705Y021305D01*
X001705Y021015D01*
X001458Y021015D02*
X001265Y021015D01*
X001362Y021015D02*
X001362Y021305D01*
X001265Y021208D01*
X007515Y018910D02*
X007708Y018910D01*
X007810Y018910D02*
X007810Y019055D01*
X008003Y019055D01*
X008104Y019055D02*
X008104Y018862D01*
X008201Y018765D01*
X008298Y018862D01*
X008298Y019055D01*
X008003Y018910D02*
X008003Y018813D01*
X007955Y018765D01*
X007858Y018765D01*
X007810Y018813D01*
X007810Y018910D02*
X007906Y018958D01*
X007955Y018958D01*
X008003Y018910D01*
X007612Y019007D02*
X007612Y018813D01*
X007688Y003180D02*
X007640Y003132D01*
X007640Y002938D01*
X007688Y002890D01*
X007785Y002890D01*
X007833Y002938D01*
X007833Y003035D01*
X007737Y003035D01*
X007833Y003132D02*
X007785Y003180D01*
X007688Y003180D01*
X007935Y003180D02*
X007935Y002890D01*
X008128Y002890D02*
X007935Y003180D01*
X008128Y003180D02*
X008128Y002890D01*
X008229Y002890D02*
X008229Y003180D01*
X008374Y003180D01*
X008423Y003132D01*
X008423Y002938D01*
X008374Y002890D01*
X008229Y002890D01*
D11*
X008188Y003500D02*
X007813Y003500D01*
X007750Y002250D02*
X008250Y001750D01*
X008750Y002250D02*
X009250Y001750D01*
X009750Y002250D02*
X010250Y001750D01*
X007250Y001750D02*
X006750Y002250D01*
X006250Y001750D02*
X005750Y002250D01*
X005250Y001750D02*
X004750Y002250D01*
X004250Y001750D02*
X003750Y002250D01*
X003250Y001750D02*
X002750Y002250D01*
X007813Y018500D02*
X008188Y018500D01*
X008500Y019813D02*
X008500Y020188D01*
X007500Y020188D02*
X007500Y019813D01*
X006500Y019813D02*
X006500Y020188D01*
X005500Y020188D02*
X005500Y019813D01*
X004500Y019813D02*
X004500Y020188D01*
X003500Y020188D02*
X003500Y019813D01*
X002500Y019813D02*
X002500Y020188D01*
X001500Y020188D02*
X001500Y019813D01*
D12*
X001750Y015500D02*
X001750Y000750D01*
X001752Y000720D01*
X001757Y000690D01*
X001766Y000661D01*
X001779Y000634D01*
X001794Y000608D01*
X001813Y000584D01*
X001834Y000563D01*
X001858Y000544D01*
X001884Y000529D01*
X001911Y000516D01*
X001940Y000507D01*
X001970Y000502D01*
X002000Y000500D01*
X013250Y000500D01*
X013280Y000502D01*
X013310Y000507D01*
X013339Y000516D01*
X013366Y000529D01*
X013392Y000544D01*
X013416Y000563D01*
X013437Y000584D01*
X013456Y000608D01*
X013471Y000634D01*
X013484Y000661D01*
X013493Y000690D01*
X013498Y000720D01*
X013500Y000750D01*
X013500Y001000D01*
X014500Y002000D01*
X014500Y015500D01*
X013500Y016500D01*
X013500Y020500D01*
X012500Y021500D01*
X001000Y021500D01*
X000970Y021498D01*
X000940Y021493D01*
X000911Y021484D01*
X000884Y021471D01*
X000858Y021456D01*
X000834Y021437D01*
X000813Y021416D01*
X000794Y021392D01*
X000779Y021366D01*
X000766Y021339D01*
X000757Y021310D01*
X000752Y021280D01*
X000750Y021250D01*
X000750Y016500D01*
X001750Y015500D01*
D13*
X009370Y020500D02*
X009372Y020550D01*
X009378Y020600D01*
X009388Y020649D01*
X009402Y020697D01*
X009419Y020744D01*
X009440Y020789D01*
X009465Y020833D01*
X009493Y020874D01*
X009525Y020913D01*
X009559Y020950D01*
X009596Y020984D01*
X009636Y021014D01*
X009678Y021041D01*
X009722Y021065D01*
X009768Y021086D01*
X009815Y021102D01*
X009863Y021115D01*
X009913Y021124D01*
X009962Y021129D01*
X010013Y021130D01*
X010063Y021127D01*
X010112Y021120D01*
X010161Y021109D01*
X010209Y021094D01*
X010255Y021076D01*
X010300Y021054D01*
X010343Y021028D01*
X010384Y020999D01*
X010423Y020967D01*
X010459Y020932D01*
X010491Y020894D01*
X010521Y020854D01*
X010548Y020811D01*
X010571Y020767D01*
X010590Y020721D01*
X010606Y020673D01*
X010618Y020624D01*
X010626Y020575D01*
X010630Y020525D01*
X010630Y020475D01*
X010626Y020425D01*
X010618Y020376D01*
X010606Y020327D01*
X010590Y020279D01*
X010571Y020233D01*
X010548Y020189D01*
X010521Y020146D01*
X010491Y020106D01*
X010459Y020068D01*
X010423Y020033D01*
X010384Y020001D01*
X010343Y019972D01*
X010300Y019946D01*
X010255Y019924D01*
X010209Y019906D01*
X010161Y019891D01*
X010112Y019880D01*
X010063Y019873D01*
X010013Y019870D01*
X009962Y019871D01*
X009913Y019876D01*
X009863Y019885D01*
X009815Y019898D01*
X009768Y019914D01*
X009722Y019935D01*
X009678Y019959D01*
X009636Y019986D01*
X009596Y020016D01*
X009559Y020050D01*
X009525Y020087D01*
X009493Y020126D01*
X009465Y020167D01*
X009440Y020211D01*
X009419Y020256D01*
X009402Y020303D01*
X009388Y020351D01*
X009378Y020400D01*
X009372Y020450D01*
X009370Y020500D01*
X011870Y001500D02*
X011872Y001550D01*
X011878Y001600D01*
X011888Y001649D01*
X011902Y001697D01*
X011919Y001744D01*
X011940Y001789D01*
X011965Y001833D01*
X011993Y001874D01*
X012025Y001913D01*
X012059Y001950D01*
X012096Y001984D01*
X012136Y002014D01*
X012178Y002041D01*
X012222Y002065D01*
X012268Y002086D01*
X012315Y002102D01*
X012363Y002115D01*
X012413Y002124D01*
X012462Y002129D01*
X012513Y002130D01*
X012563Y002127D01*
X012612Y002120D01*
X012661Y002109D01*
X012709Y002094D01*
X012755Y002076D01*
X012800Y002054D01*
X012843Y002028D01*
X012884Y001999D01*
X012923Y001967D01*
X012959Y001932D01*
X012991Y001894D01*
X013021Y001854D01*
X013048Y001811D01*
X013071Y001767D01*
X013090Y001721D01*
X013106Y001673D01*
X013118Y001624D01*
X013126Y001575D01*
X013130Y001525D01*
X013130Y001475D01*
X013126Y001425D01*
X013118Y001376D01*
X013106Y001327D01*
X013090Y001279D01*
X013071Y001233D01*
X013048Y001189D01*
X013021Y001146D01*
X012991Y001106D01*
X012959Y001068D01*
X012923Y001033D01*
X012884Y001001D01*
X012843Y000972D01*
X012800Y000946D01*
X012755Y000924D01*
X012709Y000906D01*
X012661Y000891D01*
X012612Y000880D01*
X012563Y000873D01*
X012513Y000870D01*
X012462Y000871D01*
X012413Y000876D01*
X012363Y000885D01*
X012315Y000898D01*
X012268Y000914D01*
X012222Y000935D01*
X012178Y000959D01*
X012136Y000986D01*
X012096Y001016D01*
X012059Y001050D01*
X012025Y001087D01*
X011993Y001126D01*
X011965Y001167D01*
X011940Y001211D01*
X011919Y001256D01*
X011902Y001303D01*
X011888Y001351D01*
X011878Y001400D01*
X011872Y001450D01*
X011870Y001500D01*
D14*
X002780Y001350D02*
X002780Y001260D01*
X002680Y001240D01*
X002640Y001150D01*
X002700Y001060D01*
X002630Y001000D01*
X002550Y001060D01*
X002510Y001040D01*
X002450Y001200D01*
X002330Y001200D02*
X002270Y001040D01*
X002230Y001060D01*
X002150Y001000D01*
X002080Y001060D01*
X002140Y001150D01*
X002100Y001240D01*
X002000Y001260D01*
X002000Y001350D01*
X002110Y001370D01*
X002140Y001460D01*
X002080Y001550D01*
X002150Y001620D01*
X002240Y001550D01*
X002320Y001590D01*
X002350Y001700D01*
X002440Y001700D01*
X002460Y001590D01*
X002540Y001550D01*
X002630Y001620D01*
X002700Y001550D01*
X002640Y001460D01*
X002680Y001370D01*
X002780Y001350D01*
X002450Y001200D02*
X002467Y001212D01*
X002482Y001227D01*
X002495Y001244D01*
X002504Y001263D01*
X002509Y001284D01*
X002511Y001305D01*
X002509Y001326D01*
X002504Y001346D01*
X002495Y001365D01*
X002483Y001383D01*
X002468Y001398D01*
X002451Y001410D01*
X002431Y001419D01*
X002411Y001424D01*
X002390Y001426D01*
X002369Y001424D01*
X002349Y001419D01*
X002329Y001410D01*
X002312Y001398D01*
X002297Y001383D01*
X002285Y001365D01*
X002276Y001346D01*
X002271Y001326D01*
X002269Y001305D01*
X002271Y001284D01*
X002276Y001263D01*
X002285Y001244D01*
X002298Y001227D01*
X002313Y001212D01*
X002330Y001200D01*
M02*
