G75*
G70*
%OFA0B0*%
%FSLAX24Y24*%
%IPPOS*%
%LPD*%
%AMOC8*
5,1,8,0,0,1.08239X$1,22.5*
%
%ADD10C,0.0040*%
%ADD11C,0.0100*%
%ADD12C,0.0050*%
%ADD13C,0.0000*%
%ADD14C,0.0060*%
D10*
X003270Y000770D02*
X003270Y000957D01*
X003363Y001050D01*
X003457Y000957D01*
X003457Y000770D01*
X003565Y000817D02*
X003565Y000863D01*
X003611Y000910D01*
X003705Y000910D01*
X003751Y000863D01*
X003751Y000817D01*
X003705Y000770D01*
X003611Y000770D01*
X003565Y000817D01*
X003611Y000910D02*
X003565Y000957D01*
X003565Y001004D01*
X003611Y001050D01*
X003705Y001050D01*
X003751Y001004D01*
X003751Y000957D01*
X003705Y000910D01*
X003457Y000910D02*
X003270Y000910D01*
X004270Y000910D02*
X004457Y000910D01*
X004457Y000957D02*
X004457Y000770D01*
X004565Y000817D02*
X004611Y000770D01*
X004705Y000770D01*
X004751Y000817D01*
X004751Y001004D01*
X004705Y001050D01*
X004611Y001050D01*
X004565Y001004D01*
X004565Y000957D01*
X004611Y000910D01*
X004751Y000910D01*
X004457Y000957D02*
X004363Y001050D01*
X004270Y000957D01*
X004270Y000770D01*
X005145Y000770D02*
X005145Y000957D01*
X005238Y001050D01*
X005332Y000957D01*
X005332Y000770D01*
X005440Y000770D02*
X005626Y000770D01*
X005533Y000770D02*
X005533Y001050D01*
X005440Y000957D01*
X005332Y000910D02*
X005145Y000910D01*
X005734Y000817D02*
X005921Y001004D01*
X005921Y000817D01*
X005874Y000770D01*
X005781Y000770D01*
X005734Y000817D01*
X005734Y001004D01*
X005781Y001050D01*
X005874Y001050D01*
X005921Y001004D01*
X006145Y000957D02*
X006145Y000770D01*
X006145Y000910D02*
X006332Y000910D01*
X006332Y000957D02*
X006332Y000770D01*
X006440Y000770D02*
X006626Y000770D01*
X006533Y000770D02*
X006533Y001050D01*
X006440Y000957D01*
X006332Y000957D02*
X006238Y001050D01*
X006145Y000957D01*
X006734Y000957D02*
X006828Y001050D01*
X006828Y000770D01*
X006921Y000770D02*
X006734Y000770D01*
X007145Y000770D02*
X007145Y000957D01*
X007238Y001050D01*
X007332Y000957D01*
X007332Y000770D01*
X007440Y000770D02*
X007626Y000770D01*
X007533Y000770D02*
X007533Y001050D01*
X007440Y000957D01*
X007332Y000910D02*
X007145Y000910D01*
X007734Y001004D02*
X007781Y001050D01*
X007874Y001050D01*
X007921Y001004D01*
X007921Y000957D01*
X007734Y000770D01*
X007921Y000770D01*
X008145Y000770D02*
X008145Y000957D01*
X008238Y001050D01*
X008332Y000957D01*
X008332Y000770D01*
X008440Y000770D02*
X008626Y000770D01*
X008533Y000770D02*
X008533Y001050D01*
X008440Y000957D01*
X008332Y000910D02*
X008145Y000910D01*
X008734Y000817D02*
X008781Y000770D01*
X008874Y000770D01*
X008921Y000817D01*
X008921Y000863D01*
X008874Y000910D01*
X008828Y000910D01*
X008874Y000910D02*
X008921Y000957D01*
X008921Y001004D01*
X008874Y001050D01*
X008781Y001050D01*
X008734Y001004D01*
X009145Y000957D02*
X009145Y000770D01*
X009145Y000910D02*
X009332Y000910D01*
X009332Y000957D02*
X009332Y000770D01*
X009440Y000770D02*
X009626Y000770D01*
X009533Y000770D02*
X009533Y001050D01*
X009440Y000957D01*
X009332Y000957D02*
X009238Y001050D01*
X009145Y000957D01*
X009734Y000910D02*
X009921Y000910D01*
X009874Y000770D02*
X009874Y001050D01*
X009734Y000910D01*
X010145Y000910D02*
X010332Y000910D01*
X010332Y000957D02*
X010332Y000770D01*
X010440Y000770D02*
X010626Y000770D01*
X010533Y000770D02*
X010533Y001050D01*
X010440Y000957D01*
X010332Y000957D02*
X010238Y001050D01*
X010145Y000957D01*
X010145Y000770D01*
X010734Y000817D02*
X010781Y000770D01*
X010874Y000770D01*
X010921Y000817D01*
X010921Y000910D01*
X010874Y000957D01*
X010828Y000957D01*
X010734Y000910D01*
X010734Y001050D01*
X010921Y001050D01*
X011692Y002770D02*
X011785Y002770D01*
X011832Y002817D01*
X011832Y002910D01*
X011738Y002910D01*
X011645Y002817D02*
X011692Y002770D01*
X011645Y002817D02*
X011645Y003004D01*
X011692Y003050D01*
X011785Y003050D01*
X011832Y003004D01*
X011940Y003050D02*
X011940Y002770D01*
X012126Y002770D02*
X012126Y003050D01*
X012234Y003050D02*
X012374Y003050D01*
X012421Y003004D01*
X012421Y002817D01*
X012374Y002770D01*
X012234Y002770D01*
X012234Y003050D01*
X011940Y003050D02*
X012126Y002770D01*
X010376Y003895D02*
X010190Y003895D01*
X010376Y004082D01*
X010376Y004129D01*
X010330Y004175D01*
X010236Y004175D01*
X010190Y004129D01*
X010082Y004175D02*
X009895Y004175D01*
X009895Y004035D01*
X009988Y004082D01*
X010035Y004082D01*
X010082Y004035D01*
X010082Y003942D01*
X010035Y003895D01*
X009942Y003895D01*
X009895Y003942D01*
X009832Y003675D02*
X009645Y003675D01*
X009645Y003535D01*
X009738Y003582D01*
X009785Y003582D01*
X009832Y003535D01*
X009832Y003442D01*
X009785Y003395D01*
X009692Y003395D01*
X009645Y003442D01*
X009940Y003442D02*
X009986Y003395D01*
X010080Y003395D01*
X010126Y003442D01*
X010126Y003488D01*
X010080Y003535D01*
X010033Y003535D01*
X010080Y003535D02*
X010126Y003582D01*
X010126Y003629D01*
X010080Y003675D01*
X009986Y003675D01*
X009940Y003629D01*
X009940Y004395D02*
X010126Y004395D01*
X010033Y004395D02*
X010033Y004675D01*
X009940Y004582D01*
X009832Y004535D02*
X009832Y004442D01*
X009785Y004395D01*
X009692Y004395D01*
X009645Y004442D01*
X009645Y004535D02*
X009738Y004582D01*
X009785Y004582D01*
X009832Y004535D01*
X009832Y004675D02*
X009645Y004675D01*
X009645Y004535D01*
X009942Y004895D02*
X009895Y004942D01*
X009942Y004895D02*
X010035Y004895D01*
X010082Y004942D01*
X010082Y005035D01*
X010035Y005082D01*
X009988Y005082D01*
X009895Y005035D01*
X009895Y005175D01*
X010082Y005175D01*
X010190Y005129D02*
X010190Y004942D01*
X010376Y005129D01*
X010376Y004942D01*
X010330Y004895D01*
X010236Y004895D01*
X010190Y004942D01*
X010190Y005129D02*
X010236Y005175D01*
X010330Y005175D01*
X010376Y005129D01*
X010080Y005395D02*
X010126Y005442D01*
X010126Y005629D01*
X010080Y005675D01*
X009986Y005675D01*
X009940Y005629D01*
X009940Y005582D01*
X009986Y005535D01*
X010126Y005535D01*
X010080Y005395D02*
X009986Y005395D01*
X009940Y005442D01*
X009832Y005535D02*
X009645Y005535D01*
X009785Y005675D01*
X009785Y005395D01*
X010035Y005895D02*
X010035Y006175D01*
X009895Y006035D01*
X010082Y006035D01*
X010190Y005988D02*
X010236Y006035D01*
X010330Y006035D01*
X010376Y005988D01*
X010376Y005942D01*
X010330Y005895D01*
X010236Y005895D01*
X010190Y005942D01*
X010190Y005988D01*
X010236Y006035D02*
X010190Y006082D01*
X010190Y006129D01*
X010236Y006175D01*
X010330Y006175D01*
X010376Y006129D01*
X010376Y006082D01*
X010330Y006035D01*
X009940Y006395D02*
X009940Y006442D01*
X010126Y006629D01*
X010126Y006675D01*
X009940Y006675D01*
X009785Y006675D02*
X009785Y006395D01*
X009832Y006535D02*
X009645Y006535D01*
X009785Y006675D01*
X010035Y006895D02*
X010035Y007175D01*
X009895Y007035D01*
X010082Y007035D01*
X010190Y007035D02*
X010330Y007035D01*
X010376Y006988D01*
X010376Y006942D01*
X010330Y006895D01*
X010236Y006895D01*
X010190Y006942D01*
X010190Y007035D01*
X010283Y007129D01*
X010376Y007175D01*
X010126Y007442D02*
X010080Y007395D01*
X009986Y007395D01*
X009940Y007442D01*
X009940Y007535D02*
X010033Y007582D01*
X010080Y007582D01*
X010126Y007535D01*
X010126Y007442D01*
X010126Y007675D02*
X009940Y007675D01*
X009940Y007535D01*
X009832Y007535D02*
X009645Y007535D01*
X009785Y007675D01*
X009785Y007395D01*
X010035Y007895D02*
X010035Y008175D01*
X009895Y008035D01*
X010082Y008035D01*
X010190Y008035D02*
X010376Y008035D01*
X010330Y007895D02*
X010330Y008175D01*
X010190Y008035D01*
X010080Y008395D02*
X009986Y008395D01*
X009940Y008442D01*
X010033Y008535D02*
X010080Y008535D01*
X010126Y008488D01*
X010126Y008442D01*
X010080Y008395D01*
X010080Y008535D02*
X010126Y008582D01*
X010126Y008629D01*
X010080Y008675D01*
X009986Y008675D01*
X009940Y008629D01*
X009832Y008535D02*
X009645Y008535D01*
X009785Y008675D01*
X009785Y008395D01*
X010035Y008895D02*
X010035Y009175D01*
X009895Y009035D01*
X010082Y009035D01*
X010190Y009129D02*
X010236Y009175D01*
X010330Y009175D01*
X010376Y009129D01*
X010376Y009082D01*
X010190Y008895D01*
X010376Y008895D01*
X010126Y009395D02*
X009940Y009395D01*
X010033Y009395D02*
X010033Y009675D01*
X009940Y009582D01*
X009832Y009535D02*
X009645Y009535D01*
X009785Y009675D01*
X009785Y009395D01*
X010035Y009895D02*
X010035Y010175D01*
X009895Y010035D01*
X010082Y010035D01*
X010190Y009942D02*
X010376Y010129D01*
X010376Y009942D01*
X010330Y009895D01*
X010236Y009895D01*
X010190Y009942D01*
X010190Y010129D01*
X010236Y010175D01*
X010330Y010175D01*
X010376Y010129D01*
X010080Y010395D02*
X010126Y010442D01*
X010126Y010629D01*
X010080Y010675D01*
X009986Y010675D01*
X009940Y010629D01*
X009940Y010582D01*
X009986Y010535D01*
X010126Y010535D01*
X010080Y010395D02*
X009986Y010395D01*
X009940Y010442D01*
X009832Y010442D02*
X009785Y010395D01*
X009692Y010395D01*
X009645Y010442D01*
X009738Y010535D02*
X009785Y010535D01*
X009832Y010488D01*
X009832Y010442D01*
X009785Y010535D02*
X009832Y010582D01*
X009832Y010629D01*
X009785Y010675D01*
X009692Y010675D01*
X009645Y010629D01*
X009942Y010895D02*
X009895Y010942D01*
X009942Y010895D02*
X010035Y010895D01*
X010082Y010942D01*
X010082Y010988D01*
X010035Y011035D01*
X009988Y011035D01*
X010035Y011035D02*
X010082Y011082D01*
X010082Y011129D01*
X010035Y011175D01*
X009942Y011175D01*
X009895Y011129D01*
X009940Y011395D02*
X009940Y011442D01*
X010126Y011629D01*
X010126Y011675D01*
X009940Y011675D01*
X009832Y011629D02*
X009832Y011582D01*
X009785Y011535D01*
X009832Y011488D01*
X009832Y011442D01*
X009785Y011395D01*
X009692Y011395D01*
X009645Y011442D01*
X009738Y011535D02*
X009785Y011535D01*
X009832Y011629D02*
X009785Y011675D01*
X009692Y011675D01*
X009645Y011629D01*
X009942Y011895D02*
X009895Y011942D01*
X009942Y011895D02*
X010035Y011895D01*
X010082Y011942D01*
X010082Y011988D01*
X010035Y012035D01*
X009988Y012035D01*
X010035Y012035D02*
X010082Y012082D01*
X010082Y012129D01*
X010035Y012175D01*
X009942Y012175D01*
X009895Y012129D01*
X009986Y012395D02*
X009940Y012442D01*
X009986Y012395D02*
X010080Y012395D01*
X010126Y012442D01*
X010126Y012535D01*
X010080Y012582D01*
X010033Y012582D01*
X009940Y012535D01*
X009940Y012675D01*
X010126Y012675D01*
X010035Y012895D02*
X009942Y012895D01*
X009895Y012942D01*
X009988Y013035D02*
X010035Y013035D01*
X010082Y012988D01*
X010082Y012942D01*
X010035Y012895D01*
X010035Y013035D02*
X010082Y013082D01*
X010082Y013129D01*
X010035Y013175D01*
X009942Y013175D01*
X009895Y013129D01*
X009986Y013395D02*
X009940Y013442D01*
X009986Y013395D02*
X010080Y013395D01*
X010126Y013442D01*
X010126Y013488D01*
X010080Y013535D01*
X010033Y013535D01*
X010080Y013535D02*
X010126Y013582D01*
X010126Y013629D01*
X010080Y013675D01*
X009986Y013675D01*
X009940Y013629D01*
X009832Y013629D02*
X009832Y013582D01*
X009785Y013535D01*
X009832Y013488D01*
X009832Y013442D01*
X009785Y013395D01*
X009692Y013395D01*
X009645Y013442D01*
X009738Y013535D02*
X009785Y013535D01*
X009832Y013629D02*
X009785Y013675D01*
X009692Y013675D01*
X009645Y013629D01*
X009942Y013895D02*
X009895Y013942D01*
X009942Y013895D02*
X010035Y013895D01*
X010082Y013942D01*
X010082Y013988D01*
X010035Y014035D01*
X009988Y014035D01*
X010035Y014035D02*
X010082Y014082D01*
X010082Y014129D01*
X010035Y014175D01*
X009942Y014175D01*
X009895Y014129D01*
X009940Y014395D02*
X010126Y014395D01*
X010033Y014395D02*
X010033Y014675D01*
X009940Y014582D01*
X009832Y014582D02*
X009785Y014535D01*
X009832Y014488D01*
X009832Y014442D01*
X009785Y014395D01*
X009692Y014395D01*
X009645Y014442D01*
X009738Y014535D02*
X009785Y014535D01*
X009832Y014582D02*
X009832Y014629D01*
X009785Y014675D01*
X009692Y014675D01*
X009645Y014629D01*
X009942Y014895D02*
X009895Y014942D01*
X009942Y014895D02*
X010035Y014895D01*
X010082Y014942D01*
X010082Y014988D01*
X010035Y015035D01*
X009988Y015035D01*
X010035Y015035D02*
X010082Y015082D01*
X010082Y015129D01*
X010035Y015175D01*
X009942Y015175D01*
X009895Y015129D01*
X009832Y015395D02*
X009645Y015395D01*
X009832Y015582D01*
X009832Y015629D01*
X009785Y015675D01*
X009692Y015675D01*
X009645Y015629D01*
X009940Y015629D02*
X009940Y015582D01*
X009986Y015535D01*
X010126Y015535D01*
X010126Y015442D02*
X010126Y015629D01*
X010080Y015675D01*
X009986Y015675D01*
X009940Y015629D01*
X009940Y015442D02*
X009986Y015395D01*
X010080Y015395D01*
X010126Y015442D01*
X010236Y015175D02*
X010330Y015175D01*
X010376Y015129D01*
X010190Y014942D01*
X010236Y014895D01*
X010330Y014895D01*
X010376Y014942D01*
X010376Y015129D01*
X010236Y015175D02*
X010190Y015129D01*
X010190Y014942D01*
X010236Y014175D02*
X010190Y014129D01*
X010236Y014175D02*
X010330Y014175D01*
X010376Y014129D01*
X010376Y014082D01*
X010190Y013895D01*
X010376Y013895D01*
X010330Y013175D02*
X010190Y013035D01*
X010376Y013035D01*
X010330Y012895D02*
X010330Y013175D01*
X009832Y012629D02*
X009785Y012675D01*
X009692Y012675D01*
X009645Y012629D01*
X009738Y012535D02*
X009785Y012535D01*
X009832Y012488D01*
X009832Y012442D01*
X009785Y012395D01*
X009692Y012395D01*
X009645Y012442D01*
X009785Y012535D02*
X009832Y012582D01*
X009832Y012629D01*
X010283Y012129D02*
X010190Y012035D01*
X010330Y012035D01*
X010376Y011988D01*
X010376Y011942D01*
X010330Y011895D01*
X010236Y011895D01*
X010190Y011942D01*
X010190Y012035D01*
X010283Y012129D02*
X010376Y012175D01*
X010330Y011175D02*
X010236Y011175D01*
X010190Y011129D01*
X010190Y011082D01*
X010236Y011035D01*
X010330Y011035D01*
X010376Y010988D01*
X010376Y010942D01*
X010330Y010895D01*
X010236Y010895D01*
X010190Y010942D01*
X010190Y010988D01*
X010236Y011035D01*
X010330Y011035D02*
X010376Y011082D01*
X010376Y011129D01*
X010330Y011175D01*
X010330Y015895D02*
X010236Y015895D01*
X010190Y015942D01*
X010190Y015988D01*
X010236Y016035D01*
X010330Y016035D01*
X010376Y015988D01*
X010376Y015942D01*
X010330Y015895D01*
X010330Y016035D02*
X010376Y016082D01*
X010376Y016129D01*
X010330Y016175D01*
X010236Y016175D01*
X010190Y016129D01*
X010190Y016082D01*
X010236Y016035D01*
X010082Y016082D02*
X010082Y016129D01*
X010035Y016175D01*
X009942Y016175D01*
X009895Y016129D01*
X010082Y016082D02*
X009895Y015895D01*
X010082Y015895D01*
X009940Y016395D02*
X009940Y016442D01*
X010126Y016629D01*
X010126Y016675D01*
X009940Y016675D01*
X009832Y016629D02*
X009785Y016675D01*
X009692Y016675D01*
X009645Y016629D01*
X009832Y016582D02*
X009645Y016395D01*
X009832Y016395D01*
X009832Y016582D02*
X009832Y016629D01*
X009895Y016895D02*
X010082Y017082D01*
X010082Y017129D01*
X010035Y017175D01*
X009942Y017175D01*
X009895Y017129D01*
X009895Y016895D02*
X010082Y016895D01*
X010190Y016942D02*
X010236Y016895D01*
X010330Y016895D01*
X010376Y016942D01*
X010376Y016988D01*
X010330Y017035D01*
X010190Y017035D01*
X010190Y016942D01*
X010190Y017035D02*
X010283Y017129D01*
X010376Y017175D01*
X010126Y017442D02*
X010080Y017395D01*
X009986Y017395D01*
X009940Y017442D01*
X009940Y017535D02*
X010033Y017582D01*
X010080Y017582D01*
X010126Y017535D01*
X010126Y017442D01*
X010126Y017675D02*
X009940Y017675D01*
X009940Y017535D01*
X009832Y017582D02*
X009832Y017629D01*
X009785Y017675D01*
X009692Y017675D01*
X009645Y017629D01*
X009832Y017582D02*
X009645Y017395D01*
X009832Y017395D01*
X009895Y017895D02*
X010082Y018082D01*
X010082Y018129D01*
X010035Y018175D01*
X009942Y018175D01*
X009895Y018129D01*
X009895Y017895D02*
X010082Y017895D01*
X010190Y018035D02*
X010376Y018035D01*
X010330Y017895D02*
X010330Y018175D01*
X010190Y018035D01*
X010080Y018395D02*
X009986Y018395D01*
X009940Y018442D01*
X009832Y018395D02*
X009645Y018395D01*
X009832Y018582D01*
X009832Y018629D01*
X009785Y018675D01*
X009692Y018675D01*
X009645Y018629D01*
X009940Y018629D02*
X009986Y018675D01*
X010080Y018675D01*
X010126Y018629D01*
X010126Y018582D01*
X010080Y018535D01*
X010126Y018488D01*
X010126Y018442D01*
X010080Y018395D01*
X010080Y018535D02*
X010033Y018535D01*
X010082Y018895D02*
X009895Y018895D01*
X010082Y019082D01*
X010082Y019129D01*
X010035Y019175D01*
X009942Y019175D01*
X009895Y019129D01*
X010190Y019129D02*
X010236Y019175D01*
X010330Y019175D01*
X010376Y019129D01*
X010376Y019082D01*
X010190Y018895D01*
X010376Y018895D01*
X011613Y021067D02*
X011613Y021254D01*
X011520Y021160D02*
X011707Y021160D01*
X011815Y021160D02*
X011908Y021207D01*
X011955Y021207D01*
X012001Y021160D01*
X012001Y021067D01*
X011955Y021020D01*
X011861Y021020D01*
X011815Y021067D01*
X011815Y021160D02*
X011815Y021300D01*
X012001Y021300D01*
X012109Y021300D02*
X012109Y021113D01*
X012203Y021020D01*
X012296Y021113D01*
X012296Y021300D01*
X008751Y021020D02*
X008565Y021020D01*
X008658Y021020D02*
X008658Y021300D01*
X008565Y021207D01*
X008457Y021207D02*
X008457Y021254D01*
X008410Y021300D01*
X008317Y021300D01*
X008270Y021254D01*
X008457Y021207D02*
X008270Y021020D01*
X008457Y021020D01*
X007751Y021067D02*
X007705Y021020D01*
X007611Y021020D01*
X007565Y021067D01*
X007751Y021254D01*
X007705Y021300D01*
X007611Y021300D01*
X007565Y021254D01*
X007565Y021067D01*
X007457Y021020D02*
X007270Y021020D01*
X007457Y021207D01*
X007457Y021254D01*
X007410Y021300D01*
X007317Y021300D01*
X007270Y021254D01*
X006751Y021254D02*
X006751Y021067D01*
X006705Y021020D01*
X006611Y021020D01*
X006565Y021067D01*
X006611Y021160D02*
X006565Y021207D01*
X006565Y021254D01*
X006611Y021300D01*
X006705Y021300D01*
X006751Y021254D01*
X006751Y021160D02*
X006611Y021160D01*
X006457Y021020D02*
X006270Y021020D01*
X006363Y021020D02*
X006363Y021300D01*
X006270Y021207D01*
X005751Y021207D02*
X005705Y021160D01*
X005611Y021160D01*
X005565Y021207D01*
X005565Y021254D01*
X005611Y021300D01*
X005705Y021300D01*
X005751Y021254D01*
X005751Y021207D01*
X005705Y021160D02*
X005751Y021113D01*
X005751Y021067D01*
X005705Y021020D01*
X005611Y021020D01*
X005565Y021067D01*
X005565Y021113D01*
X005611Y021160D01*
X005457Y021020D02*
X005270Y021020D01*
X005363Y021020D02*
X005363Y021300D01*
X005270Y021207D01*
X004751Y021254D02*
X004565Y021067D01*
X004565Y021020D01*
X004457Y021020D02*
X004270Y021020D01*
X004363Y021020D02*
X004363Y021300D01*
X004270Y021207D01*
X004565Y021300D02*
X004751Y021300D01*
X004751Y021254D01*
X003751Y021300D02*
X003658Y021254D01*
X003565Y021160D01*
X003705Y021160D01*
X003751Y021113D01*
X003751Y021067D01*
X003705Y021020D01*
X003611Y021020D01*
X003565Y021067D01*
X003565Y021160D01*
X003457Y021020D02*
X003270Y021020D01*
X003363Y021020D02*
X003363Y021300D01*
X003270Y021207D01*
X002751Y021160D02*
X002751Y021067D01*
X002705Y021020D01*
X002611Y021020D01*
X002565Y021067D01*
X002565Y021160D02*
X002658Y021207D01*
X002705Y021207D01*
X002751Y021160D01*
X002751Y021300D02*
X002565Y021300D01*
X002565Y021160D01*
X002457Y021020D02*
X002270Y021020D01*
X002363Y021020D02*
X002363Y021300D01*
X002270Y021207D01*
X001751Y021160D02*
X001565Y021160D01*
X001705Y021300D01*
X001705Y021020D01*
X001457Y021020D02*
X001270Y021020D01*
X001363Y021020D02*
X001363Y021300D01*
X001270Y021207D01*
X007520Y018910D02*
X007707Y018910D01*
X007815Y018910D02*
X007815Y019050D01*
X008001Y019050D01*
X007955Y018957D02*
X008001Y018910D01*
X008001Y018817D01*
X007955Y018770D01*
X007861Y018770D01*
X007815Y018817D01*
X007815Y018910D02*
X007908Y018957D01*
X007955Y018957D01*
X008109Y019050D02*
X008109Y018863D01*
X008203Y018770D01*
X008296Y018863D01*
X008296Y019050D01*
X007613Y019004D02*
X007613Y018817D01*
X007751Y021067D02*
X007751Y021254D01*
X007785Y003175D02*
X007692Y003175D01*
X007645Y003129D01*
X007645Y002942D01*
X007692Y002895D01*
X007785Y002895D01*
X007832Y002942D01*
X007832Y003035D01*
X007738Y003035D01*
X007832Y003129D02*
X007785Y003175D01*
X007940Y003175D02*
X007940Y002895D01*
X008126Y002895D02*
X007940Y003175D01*
X008126Y003175D02*
X008126Y002895D01*
X008234Y002895D02*
X008234Y003175D01*
X008374Y003175D01*
X008421Y003129D01*
X008421Y002942D01*
X008374Y002895D01*
X008234Y002895D01*
D11*
X008188Y003500D02*
X007813Y003500D01*
X007750Y002250D02*
X008250Y001750D01*
X008750Y002250D02*
X009250Y001750D01*
X009750Y002250D02*
X010250Y001750D01*
X007250Y001750D02*
X006750Y002250D01*
X006250Y001750D02*
X005750Y002250D01*
X005250Y001750D02*
X004750Y002250D01*
X004250Y001750D02*
X003750Y002250D01*
X003250Y001750D02*
X002750Y002250D01*
X007813Y018500D02*
X008188Y018500D01*
X008500Y019813D02*
X008500Y020188D01*
X007500Y020188D02*
X007500Y019813D01*
X006500Y019813D02*
X006500Y020188D01*
X005500Y020188D02*
X005500Y019813D01*
X004500Y019813D02*
X004500Y020188D01*
X003500Y020188D02*
X003500Y019813D01*
X002500Y019813D02*
X002500Y020188D01*
X001500Y020188D02*
X001500Y019813D01*
D12*
X001750Y015500D02*
X001750Y000750D01*
X001752Y000720D01*
X001757Y000690D01*
X001766Y000661D01*
X001779Y000634D01*
X001794Y000608D01*
X001813Y000584D01*
X001834Y000563D01*
X001858Y000544D01*
X001884Y000529D01*
X001911Y000516D01*
X001940Y000507D01*
X001970Y000502D01*
X002000Y000500D01*
X013250Y000500D01*
X013280Y000502D01*
X013310Y000507D01*
X013339Y000516D01*
X013366Y000529D01*
X013392Y000544D01*
X013416Y000563D01*
X013437Y000584D01*
X013456Y000608D01*
X013471Y000634D01*
X013484Y000661D01*
X013493Y000690D01*
X013498Y000720D01*
X013500Y000750D01*
X013500Y001000D01*
X014500Y002000D01*
X014500Y015500D01*
X013500Y016500D01*
X013500Y020500D01*
X012500Y021500D01*
X001000Y021500D01*
X000970Y021498D01*
X000940Y021493D01*
X000911Y021484D01*
X000884Y021471D01*
X000858Y021456D01*
X000834Y021437D01*
X000813Y021416D01*
X000794Y021392D01*
X000779Y021366D01*
X000766Y021339D01*
X000757Y021310D01*
X000752Y021280D01*
X000750Y021250D01*
X000750Y016500D01*
X001750Y015500D01*
D13*
X009370Y020500D02*
X009372Y020550D01*
X009378Y020600D01*
X009388Y020649D01*
X009402Y020697D01*
X009419Y020744D01*
X009440Y020789D01*
X009465Y020833D01*
X009493Y020874D01*
X009525Y020913D01*
X009559Y020950D01*
X009596Y020984D01*
X009636Y021014D01*
X009678Y021041D01*
X009722Y021065D01*
X009768Y021086D01*
X009815Y021102D01*
X009863Y021115D01*
X009913Y021124D01*
X009962Y021129D01*
X010013Y021130D01*
X010063Y021127D01*
X010112Y021120D01*
X010161Y021109D01*
X010209Y021094D01*
X010255Y021076D01*
X010300Y021054D01*
X010343Y021028D01*
X010384Y020999D01*
X010423Y020967D01*
X010459Y020932D01*
X010491Y020894D01*
X010521Y020854D01*
X010548Y020811D01*
X010571Y020767D01*
X010590Y020721D01*
X010606Y020673D01*
X010618Y020624D01*
X010626Y020575D01*
X010630Y020525D01*
X010630Y020475D01*
X010626Y020425D01*
X010618Y020376D01*
X010606Y020327D01*
X010590Y020279D01*
X010571Y020233D01*
X010548Y020189D01*
X010521Y020146D01*
X010491Y020106D01*
X010459Y020068D01*
X010423Y020033D01*
X010384Y020001D01*
X010343Y019972D01*
X010300Y019946D01*
X010255Y019924D01*
X010209Y019906D01*
X010161Y019891D01*
X010112Y019880D01*
X010063Y019873D01*
X010013Y019870D01*
X009962Y019871D01*
X009913Y019876D01*
X009863Y019885D01*
X009815Y019898D01*
X009768Y019914D01*
X009722Y019935D01*
X009678Y019959D01*
X009636Y019986D01*
X009596Y020016D01*
X009559Y020050D01*
X009525Y020087D01*
X009493Y020126D01*
X009465Y020167D01*
X009440Y020211D01*
X009419Y020256D01*
X009402Y020303D01*
X009388Y020351D01*
X009378Y020400D01*
X009372Y020450D01*
X009370Y020500D01*
X011870Y001500D02*
X011872Y001550D01*
X011878Y001600D01*
X011888Y001649D01*
X011902Y001697D01*
X011919Y001744D01*
X011940Y001789D01*
X011965Y001833D01*
X011993Y001874D01*
X012025Y001913D01*
X012059Y001950D01*
X012096Y001984D01*
X012136Y002014D01*
X012178Y002041D01*
X012222Y002065D01*
X012268Y002086D01*
X012315Y002102D01*
X012363Y002115D01*
X012413Y002124D01*
X012462Y002129D01*
X012513Y002130D01*
X012563Y002127D01*
X012612Y002120D01*
X012661Y002109D01*
X012709Y002094D01*
X012755Y002076D01*
X012800Y002054D01*
X012843Y002028D01*
X012884Y001999D01*
X012923Y001967D01*
X012959Y001932D01*
X012991Y001894D01*
X013021Y001854D01*
X013048Y001811D01*
X013071Y001767D01*
X013090Y001721D01*
X013106Y001673D01*
X013118Y001624D01*
X013126Y001575D01*
X013130Y001525D01*
X013130Y001475D01*
X013126Y001425D01*
X013118Y001376D01*
X013106Y001327D01*
X013090Y001279D01*
X013071Y001233D01*
X013048Y001189D01*
X013021Y001146D01*
X012991Y001106D01*
X012959Y001068D01*
X012923Y001033D01*
X012884Y001001D01*
X012843Y000972D01*
X012800Y000946D01*
X012755Y000924D01*
X012709Y000906D01*
X012661Y000891D01*
X012612Y000880D01*
X012563Y000873D01*
X012513Y000870D01*
X012462Y000871D01*
X012413Y000876D01*
X012363Y000885D01*
X012315Y000898D01*
X012268Y000914D01*
X012222Y000935D01*
X012178Y000959D01*
X012136Y000986D01*
X012096Y001016D01*
X012059Y001050D01*
X012025Y001087D01*
X011993Y001126D01*
X011965Y001167D01*
X011940Y001211D01*
X011919Y001256D01*
X011902Y001303D01*
X011888Y001351D01*
X011878Y001400D01*
X011872Y001450D01*
X011870Y001500D01*
D14*
X002780Y001350D02*
X002780Y001260D01*
X002680Y001240D01*
X002640Y001150D01*
X002700Y001060D01*
X002630Y001000D01*
X002550Y001060D01*
X002510Y001040D01*
X002450Y001200D01*
X002330Y001200D02*
X002270Y001040D01*
X002230Y001060D01*
X002150Y001000D01*
X002080Y001060D01*
X002140Y001150D01*
X002100Y001240D01*
X002000Y001260D01*
X002000Y001350D01*
X002110Y001370D01*
X002140Y001460D01*
X002080Y001550D01*
X002150Y001620D01*
X002240Y001550D01*
X002320Y001590D01*
X002350Y001700D01*
X002440Y001700D01*
X002460Y001590D01*
X002540Y001550D01*
X002630Y001620D01*
X002700Y001550D01*
X002640Y001460D01*
X002680Y001370D01*
X002780Y001350D01*
X002450Y001200D02*
X002467Y001212D01*
X002482Y001227D01*
X002495Y001244D01*
X002504Y001263D01*
X002509Y001284D01*
X002511Y001305D01*
X002509Y001326D01*
X002504Y001346D01*
X002495Y001365D01*
X002483Y001383D01*
X002468Y001398D01*
X002451Y001410D01*
X002431Y001419D01*
X002411Y001424D01*
X002390Y001426D01*
X002369Y001424D01*
X002349Y001419D01*
X002329Y001410D01*
X002312Y001398D01*
X002297Y001383D01*
X002285Y001365D01*
X002276Y001346D01*
X002271Y001326D01*
X002269Y001305D01*
X002271Y001284D01*
X002276Y001263D01*
X002285Y001244D01*
X002298Y001227D01*
X002313Y001212D01*
X002330Y001200D01*
M02*
