G75*
G70*
%OFA0B0*%
%FSLAX24Y24*%
%IPPOS*%
%LPD*%
%AMOC8*
5,1,8,0,0,1.08239X$1,22.5*
%
%ADD10C,0.1320*%
%ADD11OC8,0.0769*%
%ADD12OC8,0.0710*%
D10*
X012500Y001500D03*
X010000Y020500D03*
D11*
X008500Y020500D03*
X007500Y020500D03*
X006500Y020500D03*
X005500Y020500D03*
X004500Y020500D03*
X003500Y020500D03*
X002500Y020500D03*
X001500Y020500D03*
X011500Y020500D03*
X011500Y019500D03*
X011500Y018500D03*
X011500Y017500D03*
X011500Y016500D03*
X011500Y015500D03*
X011500Y014500D03*
X011500Y013500D03*
X011500Y012500D03*
X011500Y011500D03*
X011500Y010500D03*
X011500Y009500D03*
X011500Y008500D03*
X011500Y007500D03*
X011500Y006500D03*
X011500Y005500D03*
X011500Y004500D03*
X011500Y003500D03*
X012500Y003500D03*
X012500Y004500D03*
X012500Y005500D03*
X012500Y006500D03*
X012500Y007500D03*
X012500Y008500D03*
X012500Y009500D03*
X012500Y010500D03*
X012500Y011500D03*
X012500Y012500D03*
X012500Y013500D03*
X012500Y014500D03*
X012500Y015500D03*
X012500Y016500D03*
X012500Y017500D03*
X012500Y018500D03*
X012500Y019500D03*
X012500Y020500D03*
X010500Y001500D03*
X009500Y001500D03*
X008500Y001500D03*
X007500Y001500D03*
X006500Y001500D03*
X005500Y001500D03*
X004500Y001500D03*
X003500Y001500D03*
D12*
X002500Y002500D03*
X002500Y003500D03*
X002500Y004500D03*
X002500Y005500D03*
X002500Y006500D03*
X002500Y007500D03*
X002500Y008500D03*
X002500Y009500D03*
X002500Y010500D03*
X002500Y011500D03*
X002500Y012500D03*
X002500Y013500D03*
X002500Y014500D03*
X002500Y015500D03*
X002500Y016500D03*
X002500Y017500D03*
X002500Y018500D03*
X002500Y019500D03*
X003500Y019500D03*
X003500Y018500D03*
X003500Y017500D03*
X003500Y016500D03*
X003500Y015500D03*
X003500Y014500D03*
X003500Y013500D03*
X003500Y012500D03*
X003500Y011500D03*
X003500Y010500D03*
X003500Y009500D03*
X003500Y008500D03*
X003500Y007500D03*
X003500Y006500D03*
X003500Y005500D03*
X003500Y004500D03*
X003500Y003500D03*
X003500Y002500D03*
X004500Y002500D03*
X004500Y003500D03*
X004500Y004500D03*
X004500Y005500D03*
X004500Y006500D03*
X004500Y007500D03*
X004500Y008500D03*
X004500Y009500D03*
X004500Y010500D03*
X004500Y011500D03*
X004500Y012500D03*
X004500Y013500D03*
X004500Y014500D03*
X004500Y015500D03*
X004500Y016500D03*
X004500Y017500D03*
X004500Y018500D03*
X004500Y019500D03*
X005500Y019500D03*
X005500Y018500D03*
X005500Y017500D03*
X005500Y016500D03*
X005500Y015500D03*
X005500Y014500D03*
X005500Y013500D03*
X005500Y012500D03*
X005500Y011500D03*
X005500Y010500D03*
X005500Y009500D03*
X005500Y008500D03*
X005500Y007500D03*
X005500Y006500D03*
X005500Y005500D03*
X005500Y004500D03*
X005500Y003500D03*
X005500Y002500D03*
X006500Y002500D03*
X006500Y003500D03*
X006500Y004500D03*
X006500Y005500D03*
X006500Y006500D03*
X006500Y007500D03*
X006500Y008500D03*
X006500Y009500D03*
X006500Y010500D03*
X006500Y011500D03*
X006500Y012500D03*
X006500Y013500D03*
X006500Y014500D03*
X006500Y015500D03*
X006500Y016500D03*
X006500Y017500D03*
X006500Y018500D03*
X006500Y019500D03*
X007500Y019500D03*
X007500Y018500D03*
X007500Y017500D03*
X007500Y016500D03*
X007500Y015500D03*
X007500Y014500D03*
X007500Y013500D03*
X007500Y012500D03*
X007500Y011500D03*
X007500Y010500D03*
X007500Y009500D03*
X007500Y008500D03*
X007500Y007500D03*
X007500Y006500D03*
X007500Y005500D03*
X007500Y004500D03*
X007500Y003500D03*
X007500Y002500D03*
X008500Y002500D03*
X008500Y003500D03*
X008500Y004500D03*
X008500Y005500D03*
X008500Y006500D03*
X008500Y007500D03*
X008500Y008500D03*
X008500Y009500D03*
X008500Y010500D03*
X008500Y011500D03*
X008500Y012500D03*
X008500Y013500D03*
X008500Y014500D03*
X008500Y015500D03*
X008500Y016500D03*
X008500Y017500D03*
X008500Y018500D03*
X008500Y019500D03*
X009500Y019000D03*
X009500Y018000D03*
X009500Y017000D03*
X009500Y016000D03*
X009500Y015000D03*
X009500Y014000D03*
X009500Y013000D03*
X009500Y012000D03*
X009500Y011000D03*
X009500Y010000D03*
X009500Y009000D03*
X009500Y008000D03*
X009500Y007000D03*
X009500Y006000D03*
X009500Y005000D03*
X009500Y004000D03*
X010500Y003500D03*
X010500Y004500D03*
X010500Y005500D03*
X010500Y006500D03*
X010500Y007500D03*
X010500Y008500D03*
X010500Y009500D03*
X010500Y010500D03*
X010500Y011500D03*
X010500Y012500D03*
X010500Y013500D03*
X010500Y014500D03*
X010500Y015500D03*
X010500Y016500D03*
X010500Y017500D03*
X010500Y018500D03*
X001500Y018500D03*
X001500Y017500D03*
X001500Y016500D03*
X001500Y019500D03*
X009500Y002500D03*
M02*
