G75*
G70*
%OFA0B0*%
%FSLAX24Y24*%
%IPPOS*%
%LPD*%
%AMOC8*
5,1,8,0,0,1.08239X$1,22.5*
%
%ADD10C,0.0050*%
%ADD11C,0.0000*%
D10*
X001750Y000750D02*
X001750Y015500D01*
X000750Y016500D01*
X000750Y021250D01*
X000752Y021280D01*
X000757Y021310D01*
X000766Y021339D01*
X000779Y021366D01*
X000794Y021392D01*
X000813Y021416D01*
X000834Y021437D01*
X000858Y021456D01*
X000884Y021471D01*
X000911Y021484D01*
X000940Y021493D01*
X000970Y021498D01*
X001000Y021500D01*
X012500Y021500D01*
X013500Y020500D01*
X013500Y016500D01*
X014500Y015500D01*
X014500Y002000D01*
X013500Y001000D01*
X013500Y000750D01*
X013498Y000720D01*
X013493Y000690D01*
X013484Y000661D01*
X013471Y000634D01*
X013456Y000608D01*
X013437Y000584D01*
X013416Y000563D01*
X013392Y000544D01*
X013366Y000529D01*
X013339Y000516D01*
X013310Y000507D01*
X013280Y000502D01*
X013250Y000500D01*
X002000Y000500D01*
X001970Y000502D01*
X001940Y000507D01*
X001911Y000516D01*
X001884Y000529D01*
X001858Y000544D01*
X001834Y000563D01*
X001813Y000584D01*
X001794Y000608D01*
X001779Y000634D01*
X001766Y000661D01*
X001757Y000690D01*
X001752Y000720D01*
X001750Y000750D01*
D11*
X011870Y001500D02*
X011872Y001550D01*
X011878Y001600D01*
X011888Y001649D01*
X011902Y001697D01*
X011919Y001744D01*
X011940Y001789D01*
X011965Y001833D01*
X011993Y001874D01*
X012025Y001913D01*
X012059Y001950D01*
X012096Y001984D01*
X012136Y002014D01*
X012178Y002041D01*
X012222Y002065D01*
X012268Y002086D01*
X012315Y002102D01*
X012363Y002115D01*
X012413Y002124D01*
X012462Y002129D01*
X012513Y002130D01*
X012563Y002127D01*
X012612Y002120D01*
X012661Y002109D01*
X012709Y002094D01*
X012755Y002076D01*
X012800Y002054D01*
X012843Y002028D01*
X012884Y001999D01*
X012923Y001967D01*
X012959Y001932D01*
X012991Y001894D01*
X013021Y001854D01*
X013048Y001811D01*
X013071Y001767D01*
X013090Y001721D01*
X013106Y001673D01*
X013118Y001624D01*
X013126Y001575D01*
X013130Y001525D01*
X013130Y001475D01*
X013126Y001425D01*
X013118Y001376D01*
X013106Y001327D01*
X013090Y001279D01*
X013071Y001233D01*
X013048Y001189D01*
X013021Y001146D01*
X012991Y001106D01*
X012959Y001068D01*
X012923Y001033D01*
X012884Y001001D01*
X012843Y000972D01*
X012800Y000946D01*
X012755Y000924D01*
X012709Y000906D01*
X012661Y000891D01*
X012612Y000880D01*
X012563Y000873D01*
X012513Y000870D01*
X012462Y000871D01*
X012413Y000876D01*
X012363Y000885D01*
X012315Y000898D01*
X012268Y000914D01*
X012222Y000935D01*
X012178Y000959D01*
X012136Y000986D01*
X012096Y001016D01*
X012059Y001050D01*
X012025Y001087D01*
X011993Y001126D01*
X011965Y001167D01*
X011940Y001211D01*
X011919Y001256D01*
X011902Y001303D01*
X011888Y001351D01*
X011878Y001400D01*
X011872Y001450D01*
X011870Y001500D01*
X009370Y020500D02*
X009372Y020550D01*
X009378Y020600D01*
X009388Y020649D01*
X009402Y020697D01*
X009419Y020744D01*
X009440Y020789D01*
X009465Y020833D01*
X009493Y020874D01*
X009525Y020913D01*
X009559Y020950D01*
X009596Y020984D01*
X009636Y021014D01*
X009678Y021041D01*
X009722Y021065D01*
X009768Y021086D01*
X009815Y021102D01*
X009863Y021115D01*
X009913Y021124D01*
X009962Y021129D01*
X010013Y021130D01*
X010063Y021127D01*
X010112Y021120D01*
X010161Y021109D01*
X010209Y021094D01*
X010255Y021076D01*
X010300Y021054D01*
X010343Y021028D01*
X010384Y020999D01*
X010423Y020967D01*
X010459Y020932D01*
X010491Y020894D01*
X010521Y020854D01*
X010548Y020811D01*
X010571Y020767D01*
X010590Y020721D01*
X010606Y020673D01*
X010618Y020624D01*
X010626Y020575D01*
X010630Y020525D01*
X010630Y020475D01*
X010626Y020425D01*
X010618Y020376D01*
X010606Y020327D01*
X010590Y020279D01*
X010571Y020233D01*
X010548Y020189D01*
X010521Y020146D01*
X010491Y020106D01*
X010459Y020068D01*
X010423Y020033D01*
X010384Y020001D01*
X010343Y019972D01*
X010300Y019946D01*
X010255Y019924D01*
X010209Y019906D01*
X010161Y019891D01*
X010112Y019880D01*
X010063Y019873D01*
X010013Y019870D01*
X009962Y019871D01*
X009913Y019876D01*
X009863Y019885D01*
X009815Y019898D01*
X009768Y019914D01*
X009722Y019935D01*
X009678Y019959D01*
X009636Y019986D01*
X009596Y020016D01*
X009559Y020050D01*
X009525Y020087D01*
X009493Y020126D01*
X009465Y020167D01*
X009440Y020211D01*
X009419Y020256D01*
X009402Y020303D01*
X009388Y020351D01*
X009378Y020400D01*
X009372Y020450D01*
X009370Y020500D01*
M02*
