%
M48
M72
T01C0.0315
T02C0.1260
%
T01
X2500Y2500
X2500Y3500
X2500Y4500
X2500Y5500
X2500Y6500
X2500Y7500
X2500Y8500
X2500Y9500
X2500Y10500
X2500Y11500
X2500Y12500
X2500Y13500
X2500Y14500
X2500Y15500
X2500Y16500
X2500Y17500
X2500Y18500
X2500Y19500
X2500Y20500
X3500Y20500
X3500Y19500
X3500Y18500
X3500Y17500
X3500Y16500
X3500Y15500
X3500Y14500
X3500Y13500
X3500Y12500
X3500Y11500
X3500Y10500
X3500Y9500
X3500Y8500
X3500Y7500
X3500Y6500
X3500Y5500
X3500Y4500
X3500Y3500
X3500Y2500
X3500Y1500
X4500Y1500
X4500Y2500
X4500Y3500
X4500Y4500
X4500Y5500
X4500Y6500
X4500Y7500
X4500Y8500
X4500Y9500
X4500Y10500
X4500Y11500
X4500Y12500
X4500Y13500
X4500Y14500
X4500Y15500
X4500Y16500
X4500Y17500
X4500Y18500
X4500Y19500
X4500Y20500
X5500Y20500
X5500Y19500
X5500Y18500
X5500Y17500
X5500Y16500
X5500Y15500
X5500Y14500
X5500Y13500
X5500Y12500
X5500Y11500
X5500Y10500
X5500Y9500
X5500Y8500
X5500Y7500
X5500Y6500
X5500Y5500
X5500Y4500
X5500Y3500
X5500Y2500
X5500Y1500
X6500Y1500
X6500Y2500
X6500Y3500
X6500Y4500
X6500Y5500
X6500Y6500
X6500Y7500
X6500Y8500
X6500Y9500
X6500Y10500
X6500Y11500
X6500Y12500
X6500Y13500
X6500Y14500
X6500Y15500
X6500Y16500
X6500Y17500
X6500Y18500
X6500Y19500
X6500Y20500
X7500Y20500
X7500Y19500
X7500Y18500
X7500Y17500
X7500Y16500
X7500Y15500
X7500Y14500
X7500Y13500
X7500Y12500
X7500Y11500
X7500Y10500
X7500Y9500
X7500Y8500
X7500Y7500
X7500Y6500
X7500Y5500
X7500Y4500
X7500Y3500
X7500Y2500
X7500Y1500
X8500Y1500
X8500Y2500
X8500Y3500
X8500Y4500
X8500Y5500
X8500Y6500
X8500Y7500
X8500Y8500
X8500Y9500
X8500Y10500
X8500Y11500
X8500Y12500
X8500Y13500
X8500Y14500
X8500Y15500
X8500Y16500
X8500Y17500
X8500Y18500
X8500Y19500
X8500Y20500
X9500Y19000
X9500Y18000
X9500Y17000
X9500Y16000
X9500Y15000
X9500Y14000
X9500Y13000
X9500Y12000
X9500Y11000
X9500Y10000
X9500Y9000
X9500Y8000
X9500Y7000
X9500Y6000
X9500Y5000
X9500Y4000
X10500Y3500
X10500Y4500
X10500Y5500
X10500Y6500
X10500Y7500
X10500Y8500
X10500Y9500
X10500Y10500
X10500Y11500
X10500Y12500
X10500Y13500
X10500Y14500
X10500Y15500
X10500Y16500
X10500Y17500
X10500Y18500
X11500Y18500
X11500Y17500
X11500Y16500
X11500Y15500
X11500Y14500
X11500Y13500
X11500Y12500
X11500Y11500
X11500Y10500
X11500Y9500
X11500Y8500
X11500Y7500
X11500Y6500
X11500Y5500
X11500Y4500
X11500Y3500
X12500Y3500
X12500Y4500
X12500Y5500
X12500Y6500
X12500Y7500
X12500Y8500
X12500Y9500
X12500Y10500
X12500Y11500
X12500Y12500
X12500Y13500
X12500Y14500
X12500Y15500
X12500Y16500
X12500Y17500
X12500Y18500
X12500Y19500
X12500Y20500
X11500Y20500
X11500Y19500
X1500Y19500
X1500Y20500
X1500Y18500
X1500Y17500
X1500Y16500
X9500Y2500
X9500Y1500
X10500Y1500
T02
X12500Y1500
X10000Y20500
M30
